<?xml version="1.0" encoding="UTF-8"?>
<svg version="1.1" xmlns="http://www.w3.org/2000/svg" width="589" height="423">
<path d="M0 0 C1.04414062 0.78503906 1.04414062 0.78503906 2.109375 1.5859375 C7.5326476 5.88972722 11.96769125 11.40414296 16 17 C16 17.66 16 18.32 16 19 C16.66 19 17.32 19 18 19 C34.05363595 45.44367953 39.53748342 73.11994774 32.203125 103.6640625 C30.68918724 109.37483429 28.66549552 114.72606849 26 120 C25.60941406 120.78246094 25.21882813 121.56492188 24.81640625 122.37109375 C20.38541659 130.75365451 14.93830629 138.16380112 8.47964478 145.0933075 C7.95355987 145.66008294 7.42747497 146.22685838 6.8854481 146.81080884 C1.50522285 152.57812079 -4.03359799 158.18196616 -9.61181641 163.75708008 C-10.71397039 164.86223765 -11.8159233 165.96759578 -12.91769409 167.07313538 C-15.86505462 170.02920195 -18.81552798 172.98214114 -21.76692247 175.93417954 C-23.61351865 177.78149204 -25.45939879 179.62951699 -27.30503464 181.47778893 C-33.74984128 187.93179279 -40.19716976 194.38326459 -46.64697266 200.83227539 C-52.65480291 206.83950102 -58.65698821 212.85232728 -64.65665686 218.86770326 C-69.82360907 224.04769964 -74.99437724 229.22386544 -80.16817605 234.39702338 C-83.25224254 237.48083467 -86.33472885 240.56618631 -89.41337967 243.65540504 C-92.29664463 246.54830237 -95.18460577 249.43642509 -98.07634354 252.32085228 C-99.13832904 253.38178702 -100.1985932 254.44444788 -101.25704193 255.50891113 C-102.6961882 256.9557084 -104.14204503 258.39582156 -105.58828735 259.83552551 C-106.39678446 260.64456738 -107.20528156 261.45360926 -108.03827858 262.28716755 C-110 264 -110 264 -112 264 C-112.33 264.99 -112.66 265.98 -113 267 C-116.13136137 269.6126308 -119.58958144 271.76919622 -123 274 C-123.79019531 274.53238281 -124.58039063 275.06476563 -125.39453125 275.61328125 C-145.25358841 288.35864629 -172.55285849 293.14686588 -195.5625 288.375 C-205.17586494 286.25499849 -215.74359999 283.50426667 -224 278 C-227.43002185 278.42418181 -230.53440953 280.01484333 -233.6875 281.375 C-260.54144636 292.62069595 -286.22568916 292.51825139 -313.20703125 281.66015625 C-319.02623214 279.19317456 -324.53364792 276.16374487 -330 273 C-330 272.34 -330 271.68 -330 271 C-330.56203125 270.7421875 -331.1240625 270.484375 -331.703125 270.21875 C-334.26704579 268.85830223 -336.45226365 267.27211038 -338.75 265.5 C-339.54921875 264.8915625 -340.3484375 264.283125 -341.171875 263.65625 C-342.07679688 262.83640625 -342.07679688 262.83640625 -343 262 C-343 261.34 -343 260.68 -343 260 C-343.87398437 259.64421875 -343.87398437 259.64421875 -344.765625 259.28125 C-347.47552837 257.7273194 -348.86530802 255.98070569 -350.75 253.5 C-351.36359375 252.7059375 -351.9771875 251.911875 -352.609375 251.09375 C-354 249 -354 249 -354 247 C-354.66 247 -355.32 247 -356 247 C-370.28495507 222.7731348 -377.60624295 195.34937908 -370.83618164 167.46850586 C-367.35384434 154.27560706 -362.14250759 142.60204278 -355 131 C-354.34 131 -353.68 131 -353 131 C-353 130.01 -353 129.02 -353 128 C-352.34 128 -351.68 128 -351 128 C-350.66935547 127.19369141 -350.66935547 127.19369141 -350.33203125 126.37109375 C-348.54948697 123.19806038 -346.1640849 120.69695486 -343.6875 118.0625 C-343.21376953 117.55009766 -342.74003906 117.03769531 -342.25195312 116.50976562 C-339.96412027 114.04666787 -337.64065736 111.64219301 -335.2578125 109.26953125 C-332.97251317 107.07114694 -332.97251317 107.07114694 -331.1875 104.625 C-329.34097208 102.4091665 -327.61241637 100.74484098 -325.4296875 98.89453125 C-320.72474634 94.81808636 -316.32669141 90.47402826 -311.9375 86.0625 C-311.17373047 85.30259766 -310.40996094 84.54269531 -309.62304688 83.75976562 C-305.42618824 79.55572674 -301.39968651 75.27445155 -297.56494141 70.73657227 C-295.37080425 68.30179885 -292.90691445 66.26963249 -290.40234375 64.1640625 C-288.48817539 62.43975475 -286.71671395 60.69661222 -284.94140625 58.8359375 C-264.90524127 37.88204123 -240.61932459 25.52056284 -211.33789062 24.66625977 C-196.50453709 24.45059934 -181.78696029 26.38361637 -168.09375 32.36328125 C-165.60943377 33.11877294 -164.40707848 32.9083315 -162 32 C-157.96513444 29.27373948 -155.03385502 25.82221414 -151.89453125 22.15625 C-147.32703353 16.95777837 -142.44450897 12.26731784 -137 8 C-136.13375 7.113125 -135.2675 6.22625 -134.375 5.3125 C-132 3 -132 3 -129 2 C-129 1.34 -129 0.68 -129 0 C-93.61062561 -32.00494357 -35.77263662 -28.00004803 0 0 Z M-117.52734375 30.6640625 C-117.91019531 31.14617187 -118.29304687 31.62828125 -118.6875 32.125 C-121.22335761 35.27768784 -124.01031413 37.71791845 -127.078125 40.3359375 C-129.50972512 42.44134736 -131.75772243 44.69543694 -134 47 C-134.78375 47.680625 -135.5675 48.36125 -136.375 49.0625 C-136.91125 49.701875 -137.4475 50.34125 -138 51 C-137.6508977 54.62003902 -135.91680044 56.52000608 -133.5 59.125 C-130.08071749 62.83856502 -130.08071749 62.83856502 -129 65 C-128.34 65 -127.68 65 -127 65 C-126.773125 65.66 -126.54625 66.32 -126.3125 67 C-125.25062929 69.42713305 -124.20368929 71.26397742 -122.75 73.4375 C-108.85055159 95.49621164 -106.72444105 122.95518339 -112.16088867 148.03466797 C-115.80993093 163.22023833 -122.64671939 175.94049171 -132.51953125 188.02734375 C-134.06916614 189.94853379 -134.06916614 189.94853379 -135.01171875 192.19140625 C-136 194 -136 194 -139 195 C-140.33895632 196.66215268 -141.67130142 198.32963607 -143 200 C-145 201.66666667 -147 203.33333333 -149 205 C-150.33827304 206.66270287 -151.67189785 208.32916181 -153 210 C-153.804375 210.639375 -154.60875 211.27875 -155.4375 211.9375 C-158.15604996 213.98692404 -158.15604996 213.98692404 -160.5 217 C-162.83518237 219.80221884 -165.16900965 221.73520772 -168 224 C-168.825 224.99 -169.65 225.98 -170.5 227 C-172.83721966 229.80466359 -175.13004333 231.77578358 -178 234 C-178.825 234.845625 -179.65 235.69125 -180.5 236.5625 C-184.32729734 240.2941149 -187.05803392 242.16717507 -192.4375 242.4375 C-196.95278304 242.2722151 -199.56215039 241.0285818 -203 238 C-205.67628247 234.49314711 -206.91323931 231.42479512 -207 227 C-201.80571767 211.93658124 -184.26687727 199.19426334 -173.17382812 188.26977539 C-159.7034493 174.99015683 -148.37519911 162.64894808 -141 145 C-140.64679688 144.26265625 -140.29359375 143.5253125 -139.9296875 142.765625 C-138.67959086 139.04685011 -138.48624535 135.38739895 -138.3125 131.5 C-138.27632568 130.69973389 -138.24015137 129.89946777 -138.20288086 129.07495117 C-137.55457234 112.16984094 -141.14870414 99.45189456 -150 85 C-150.66 85 -151.32 85 -152 85 C-152.26296875 84.42121094 -152.5259375 83.84242188 -152.796875 83.24609375 C-156.06329728 77.14806515 -161.49728469 72.09504395 -167 68 C-167.66 68 -168.32 68 -169 68 C-169 67.34 -169 66.68 -169 66 C-171.97 65.01 -171.97 65.01 -175 64 C-175 63.34 -175 62.68 -175 62 C-194.15157946 54.09064641 -213.96803391 50.69164274 -233.87939453 58.76171875 C-243.88417638 63.08124361 -252.04827774 68.55475687 -260 76 C-261.15242188 77.07507813 -261.15242188 77.07507813 -262.328125 78.171875 C-264.22495578 79.8330899 -264.22495578 79.8330899 -264 82 C-265.485 82.495 -265.485 82.495 -267 83 C-267 83.66 -267 84.32 -267 85 C-268.485 85.495 -268.485 85.495 -270 86 C-272.2085766 87.87508162 -272.2085766 87.87508162 -274 90 C-274 90.66 -274 91.32 -274 92 C-275.485 92.495 -275.485 92.495 -277 93 C-277 93.66 -277 94.32 -277 95 C-278.485 95.495 -278.485 95.495 -280 96 C-281.35386936 97.65002828 -282.68678142 99.3174387 -284 101 C-284.99 101.66 -285.98 102.32 -287 103 C-287 103.66 -287 104.32 -287 105 C-287.99 105.33 -288.98 105.66 -290 106 C-290 106.66 -290 107.32 -290 108 C-290.99 108.33 -291.98 108.66 -293 109 C-295.2085766 110.87508162 -295.2085766 110.87508162 -297 113 C-297 113.66 -297 114.32 -297 115 C-297.99 115.33 -298.98 115.66 -300 116 C-300 116.66 -300 117.32 -300 118 C-300.53625 118.20625 -301.0725 118.4125 -301.625 118.625 C-304.91978009 120.53250426 -307.59363628 123.04819384 -310 126 C-310 126.66 -310 127.32 -310 128 C-310.53625 128.20625 -311.0725 128.4125 -311.625 128.625 C-314.91978009 130.53250426 -317.59363628 133.04819384 -320 136 C-320 136.66 -320 137.32 -320 138 C-320.99 138.33 -321.98 138.66 -323 139 C-323 139.66 -323 140.32 -323 141 C-323.99 141.33 -324.98 141.66 -326 142 C-327.75402998 144.19699687 -329.32800864 146.35113898 -330.875 148.6875 C-331.54208984 149.68994751 -331.54208984 149.68994751 -332.22265625 150.71264648 C-336.35261452 157.15056714 -338.79891459 163.67221981 -341 171 C-341.36222656 171.8765625 -341.72445312 172.753125 -342.09765625 173.65625 C-345.86082927 187.6011682 -343.97185084 204.00341002 -338 217 C-337.60425781 217.91523438 -337.20851563 218.83046875 -336.80078125 219.7734375 C-331.63464227 230.92955158 -324.81270316 238.67117997 -315 246 C-314.20722656 246.64066406 -313.41445313 247.28132812 -312.59765625 247.94140625 C-305.70022544 253.25506759 -298.26771091 255.61353642 -290 258 C-288.88496094 258.36867188 -287.76992188 258.73734375 -286.62109375 259.1171875 C-282.25086266 260.18263758 -278.23017911 260.34259545 -273.75 260.3125 C-272.91678223 260.30903564 -272.08356445 260.30557129 -271.22509766 260.30200195 C-265.03461357 260.19319659 -258.60235969 259.89653916 -253 257 C-252.67 256.01 -252.34 255.02 -252 254 C-252.66 254 -253.32 254 -254 254 C-254.25136719 253.47664062 -254.50273437 252.95328125 -254.76171875 252.4140625 C-256.0223005 249.95652459 -257.38114993 247.5681195 -258.76660156 245.17919922 C-274.33644661 218.32085307 -279.7764692 192.43074927 -272 162 C-269.35089206 152.63751756 -265.53783133 144.22700079 -260.09375 136.18359375 C-259.4440625 135.21550781 -258.794375 134.24742187 -258.125 133.25 C-257.50882812 132.36828125 -256.89265625 131.4865625 -256.2578125 130.578125 C-254.79550467 128.08973082 -254.79550467 128.08973082 -255.08203125 125.41015625 C-256.14531092 122.61848154 -257.41679963 121.24650541 -259.5625 119.1875 C-262.29969586 116.25479015 -263.48057525 114.55625313 -263.4375 110.5 C-263.293125 109.345 -263.14875 108.19 -263 107 C-255.39549345 102.29721306 -247.38506138 100.41874162 -238.796875 98.40234375 C-234.56998754 97.40461543 -230.38612273 96.29706192 -226.203125 95.12890625 C-225.04941406 94.80776855 -223.89570313 94.48663086 -222.70703125 94.15576172 C-220.44714974 93.52280338 -218.18922825 92.88279363 -215.93359375 92.23486328 C-209.09252014 90.33585379 -202.94467777 88.68510741 -196 91 C-195.22914793 101.40272424 -197.53118494 110.39700911 -200.25 120.3125 C-200.65109726 121.81669592 -201.05084342 123.32125278 -201.44921875 124.82617188 C-202.23437941 127.785571 -203.03326352 130.74075503 -203.84179688 133.69384766 C-204.61827573 136.54413052 -205.35153734 139.40033896 -206.04882812 142.27099609 C-206.21751404 142.94929977 -206.38619995 143.62760345 -206.55999756 144.32646179 C-207.01552505 146.16634574 -207.45889934 148.0092267 -207.90136719 149.85229492 C-209.10810308 153.30972734 -210.41196567 155.41702275 -213 158 C-216.25703804 158.51699016 -217.93412674 158.76646832 -221 158 C-223.6875 155.8125 -223.6875 155.8125 -226 153 C-227.3921875 151.6078125 -227.3921875 151.6078125 -228.8125 150.1875 C-229.534375 149.465625 -230.25625 148.74375 -231 148 C-236.53578112 150.26193207 -238.51936133 154.79065879 -241 160 C-248.29718587 179.24284259 -249.58892335 198.1199544 -241.609375 217.3515625 C-240.18362479 220.31562216 -238.65645557 223.15917869 -237 226 C-236.525625 226.82242188 -236.05125 227.64484375 -235.5625 228.4921875 C-232.12920979 234.03396572 -228.03107187 237.91595343 -223 242 C-222.44570312 242.51304687 -221.89140625 243.02609375 -221.3203125 243.5546875 C-212.04445346 252.12043293 -200.85421248 255.58783563 -189 259 C-188.01 259.33 -187.02 259.66 -186 260 C-165.56683067 261.53798049 -147.12558713 256.29234627 -131.42172241 242.80422974 C-121.66310257 234.2387702 -112.5940879 224.89317782 -103.43603516 215.69677734 C-100.64759662 212.89677452 -97.85003876 210.10607962 -95.04989815 207.31778526 C-92.88281537 205.15790069 -90.72048202 202.9933122 -88.55959702 200.82722855 C-87.52838799 199.79468612 -86.4956933 198.76362522 -85.46149063 197.73408127 C-84.03086304 196.30850336 -82.60728004 194.87586624 -81.18408203 193.44287109 C-79.96835007 192.22475235 -79.96835007 192.22475235 -78.72805786 190.98202515 C-76.78094496 189.18701181 -76.78094496 189.18701181 -77 187 C-76.13480743 186.62180115 -76.13480743 186.62180115 -75.25213623 186.23596191 C-72.7159125 184.8440941 -71.01316506 183.26719104 -68.96582031 181.22460938 C-67.79505951 180.06330505 -67.79505951 180.06330505 -66.60064697 178.87854004 C-65.76821472 178.04205933 -64.93578247 177.20557861 -64.078125 176.34375 C-63.21813904 175.48567749 -62.35815308 174.62760498 -61.47210693 173.74353027 C-59.65749174 171.93027533 -57.84539684 170.11449519 -56.03564453 168.29638672 C-53.25384379 165.50385862 -50.46151855 162.72217542 -47.66796875 159.94140625 C-45.90821228 158.18032867 -44.14907605 156.41863106 -42.390625 154.65625 C-41.55009583 153.81976929 -40.70956665 152.98328857 -39.84356689 152.12145996 C-39.07566833 151.34725708 -38.30776978 150.5730542 -37.51660156 149.77539062 C-36.83583557 149.09303345 -36.15506958 148.41067627 -35.45367432 147.7076416 C-33.78392923 146.11994508 -33.78392923 146.11994508 -34 144 C-33.46375 143.79375 -32.9275 143.5875 -32.375 143.375 C-29.08021991 141.46749574 -26.40636372 138.95180616 -24 136 C-24 135.34 -24 134.68 -24 134 C-22.515 133.505 -22.515 133.505 -21 133 C-21 132.34 -21 131.68 -21 131 C-19.515 130.505 -19.515 130.505 -18 130 C-12.49278193 124.77904822 -8.15728389 118.30795798 -4 112 C-3.49210937 111.23171875 -2.98421875 110.4634375 -2.4609375 109.671875 C-0.66480381 106.3869674 0.49329634 102.98979203 1.625 99.4375 C1.8415625 98.77814453 2.058125 98.11878906 2.28125 97.43945312 C6.94904442 83.10471408 6.89921158 66.97502882 1 53 C0.68804687 52.18660156 0.37609375 51.37320313 0.0546875 50.53515625 C-6.36173133 34.76370661 -19.6647643 20.420902 -35 13 C-37.83590172 11.94798272 -40.70947355 11.11349711 -43.625 10.3125 C-44.36234375 10.10044922 -45.0996875 9.88839844 -45.859375 9.66992188 C-72.087557 2.21980208 -99.13006455 10.61996803 -117.52734375 30.6640625 Z " fill="#7B48CD" transform="translate(468,67)"/>
<path d="M0 0 C0.69609375 0.52335937 1.3921875 1.04671875 2.109375 1.5859375 C7.5326476 5.88972722 11.96769125 11.40414296 16 17 C16 17.66 16 18.32 16 19 C16.66 19 17.32 19 18 19 C34.05282311 45.44234061 39.52015811 73.09210347 32.21484375 103.63671875 C28.55864232 117.44135768 28.55864232 117.44135768 24 122 C24.33 119.03 24.66 116.06 25 113 C25.66 113 26.32 113 27 113 C27.75203348 107.2041124 27.75203348 107.2041124 27.9375 101.375 C28.02471805 98.06071421 29.01249714 95.14766537 30 92 C29.34 91.67 28.68 91.34 28 91 C28.65484375 90.24460937 29.3096875 89.48921875 29.984375 88.7109375 C33.07822952 84.07015572 32.43030142 78.99936934 32.25 73.625 C32.23195313 72.60277344 32.21390625 71.58054687 32.1953125 70.52734375 C32.14839491 68.01725251 32.08276729 65.50912236 32 63 C31.34 63.66 30.68 64.32 30 65 C30.05220703 64.03900391 30.05220703 64.03900391 30.10546875 63.05859375 C30.28997638 57.16313573 29.50847615 53.41830849 27 48 C26.48861998 45.32472489 26.23850501 42.71895713 26 40 C24.02 39.505 24.02 39.505 22 39 C21.896875 37.9275 21.79375 36.855 21.6875 35.75 C21.01853976 32.10112599 20.67798347 30.48669893 18 28 C15.40144267 27.1957792 15.40144267 27.1957792 13 27 C13.99 25.68 14.98 24.36 16 23 C15.34 23 14.68 23 14 23 C13.505 21.02 13.505 21.02 13 19 C12.34 19 11.68 19 11 19 C10.938125 18.05125 10.87625 17.1025 10.8125 16.125 C10.4103125 14.578125 10.4103125 14.578125 10 13 C7.52869082 11.84478498 7.52869082 11.84478498 5 11 C4.6278958 9.67696283 4.29369827 8.34262065 4 7 C2.20067421 5.93283296 2.20067421 5.93283296 0 5 C-4.77777778 1.44444444 -4.77777778 1.44444444 -6 -1 C-10.1692367 -3.12358318 -14.28976797 -4.44158425 -19 -4 C-19.185625 -4.9590625 -19.185625 -4.9590625 -19.375 -5.9375 C-19.684375 -6.9584375 -19.684375 -6.9584375 -20 -8 C-20.99 -8.495 -20.99 -8.495 -22 -9 C-22 -9.66 -22 -10.32 -22 -11 C-24.64 -11 -27.28 -11 -30 -11 C-30 -11.99 -30 -12.98 -30 -14 C-30.59167969 -14.04898438 -31.18335938 -14.09796875 -31.79296875 -14.1484375 C-36.2497444 -14.57012264 -39.87258109 -15.20086868 -44 -17 C-50.70904721 -19.06195488 -56.94370252 -19.33423337 -63.9375 -19.3125 C-65.48727539 -19.33666992 -65.48727539 -19.33666992 -67.06835938 -19.36132812 C-72.92853851 -19.36503945 -77.59537116 -18.71985665 -83.06811523 -16.63891602 C-85.69794715 -15.7691738 -87.84605826 -15.89164283 -90.5625 -16.3125 C-91.40941406 -16.43238281 -92.25632812 -16.55226563 -93.12890625 -16.67578125 C-93.74636719 -16.78277344 -94.36382812 -16.88976563 -95 -17 C-95 -17.33 -95 -17.66 -95 -18 C-93.35686339 -18.48833406 -91.71028534 -18.96508966 -90.0625 -19.4375 C-88.68771484 -19.83775391 -88.68771484 -19.83775391 -87.28515625 -20.24609375 C-56.41379479 -27.33072248 -24.58865227 -19.2460917 0 0 Z " fill="#A37ED7" transform="translate(468,67)"/>
<path d="M0 0 C0.89074219 -0.01224609 1.78148437 -0.02449219 2.69921875 -0.03710938 C8.19131126 -0.04906604 13.15555069 0.51067063 18.48876953 1.84204102 C22.25609094 2.41759271 25.17386427 1.37954524 28.75 0.1875 C28.42 1.8375 28.09 3.4875 27.75 5.1875 C31.47965139 7.22185531 33.41905042 8.1875 37.75 8.1875 C37.75 8.8475 37.75 9.5075 37.75 10.1875 C41.215 9.6925 41.215 9.6925 44.75 9.1875 C44.42 11.1675 44.09 13.1475 43.75 15.1875 C45.58284443 16.31266085 45.58284443 16.31266085 47.75 17.1875 C48.74 16.8575 49.73 16.5275 50.75 16.1875 C55.75 21.9375 55.75 21.9375 55.75 24.1875 C57.4 24.5175 59.05 24.8475 60.75 25.1875 C60.09 25.8475 59.43 26.5075 58.75 27.1875 C59.74 28.1775 59.74 28.1775 60.75 29.1875 C61.08333333 30.52083333 61.41666667 31.85416667 61.75 33.1875 C62.41 33.8475 63.07 34.5075 63.75 35.1875 C67.04449099 40.80147685 69.02767567 45.686581 69.75 52.1875 C70.6269124 54.90327112 71.6848181 57.54068436 72.75 60.1875 C74.0625 63.5 74.0625 63.5 74.75 66.1875 C74.09 67.1775 73.43 68.1675 72.75 69.1875 C73.41 69.5175 74.07 69.8475 74.75 70.1875 C75.64159574 72.93658686 76.05157945 74.49817554 74.875 77.1875 C74.318125 78.1775 74.318125 78.1775 73.75 79.1875 C73.585 80.033125 73.42 80.87875 73.25 81.75 C72.75 84.1875 72.75 84.1875 70.75 87.1875 C71.41 87.1875 72.07 87.1875 72.75 87.1875 C71.69124926 90.59062738 70.74097846 93.20103231 68.75 96.1875 C67.76 96.1875 66.77 96.1875 65.75 96.1875 C65.9665625 95.50429687 66.183125 94.82109375 66.40625 94.1171875 C70.53237413 79.17908997 70.82693125 62.58354058 64.75 48.1875 C64.43804687 47.37410156 64.12609375 46.56070313 63.8046875 45.72265625 C58.0104906 31.48061766 47.4614513 20.52698244 34.75 12.1875 C33.99203125 11.67316406 33.2340625 11.15882812 32.453125 10.62890625 C28.85096426 8.70810088 25.16927851 7.6590857 21.25 6.5625 C20.13044922 6.23765625 20.13044922 6.23765625 18.98828125 5.90625 C2.40458134 1.15127764 -15.70936621 2.17768703 -31.25 10.1875 C-33.64149856 11.6594825 -35.95497731 13.19141373 -38.2421875 14.8203125 C-40.20528368 16.15705114 -42.04800606 17.29380372 -44.25 18.1875 C-44.91 17.8575 -45.57 17.5275 -46.25 17.1875 C-45.755 15.7025 -45.755 15.7025 -45.25 14.1875 C-44.651875 14.043125 -44.05375 13.89875 -43.4375 13.75 C-41.07390139 13.33995574 -41.07390139 13.33995574 -39.3125 11.25 C-37.03774475 8.97524475 -35.30263229 8.12677147 -32.25 7.1875 C-31.26 7.1875 -30.27 7.1875 -29.25 7.1875 C-29.25 6.5275 -29.25 5.8675 -29.25 5.1875 C-24.85664687 2.72293605 -21.24322813 1.72248873 -16.25 1.1875 C-14.97382813 0.93419922 -14.97382813 0.93419922 -13.671875 0.67578125 C-9.10090642 0.02353117 -4.61142227 0.00327982 0 0 Z " fill="#A883DE" transform="translate(403.25,71.8125)"/>
<path d="M0 0 C1.625 1.5625 1.625 1.5625 3 4 C1.40056028 12.63697451 -2.9620273 19.07739795 -9.1875 25.125 C-12.35660712 28.40338667 -13.25953678 31.55722068 -14 36 C-14.99 36 -15.98 36 -17 36 C-17 35.34 -17 34.68 -17 34 C-20.72614153 35.11854586 -20.72614153 35.11854586 -23 38 C-23.99 38.33 -24.98 38.66 -26 39 C-26.72527445 40.71428506 -27.4459083 42.4309639 -28.125 44.1640625 C-29.50154793 47.05235504 -31.64909055 48.87298669 -34 51 C-36.81846074 53.74619252 -39.4474728 56.5212949 -41.9375 59.5625 C-44.66591626 62.79147842 -47.32515599 64.91202045 -51 67 C-51.66 67 -52.32 67 -53 67 C-53 67.66 -53 68.32 -53 69 C-54.485 69.495 -54.485 69.495 -56 70 C-56.66 69.34 -57.32 68.68 -58 68 C-35 45 -35 45 -32.2565918 42.27246094 C-30.38624696 40.38896318 -28.67655206 38.49032369 -27 36.4375 C-25.25008636 34.36253879 -23.70332688 32.76418291 -21.5625 31.0625 C-12.16549719 23.49905872 -3.48724368 11.53472908 0 0 Z " fill="#9770D4" transform="translate(468,168)"/>
<path d="M0 0 C1.70884005 1.62339805 3.37446717 3.29319053 5 5 C5 5.66 5 6.32 5 7 C5.66 7 6.32 7 7 7 C10.70194779 11.68994703 13.52885293 16.54033347 16.0625 21.9375 C16.40611572 22.66751221 16.74973145 23.39752441 17.10375977 24.1496582 C20.45496212 31.54933562 22.42241237 39.04075847 24 47 C24.19078125 47.91136719 24.3815625 48.82273438 24.578125 49.76171875 C26.66177402 65.75565428 24.85246092 81.45256841 21 97 C20.67 97 20.34 97 20 97 C19.94209647 93.70840684 19.90643739 90.41694397 19.875 87.125 C19.85824219 86.18785156 19.84148437 85.25070313 19.82421875 84.28515625 C19.81777344 83.38925781 19.81132812 82.49335938 19.8046875 81.5703125 C19.79421387 80.74289551 19.78374023 79.91547852 19.77294922 79.06298828 C20 77 20 77 22 75 C22.49019665 71.48294198 22.37977842 67.9222718 22.375 64.375 C22.37556396 63.3427832 22.37612793 62.31056641 22.37670898 61.24707031 C22.23389455 51.19230982 20.17118329 42.51354988 17 33 C15.67696283 32.6278958 14.34262065 32.29369827 13 32 C12.67 31.34 12.34 30.68 12 30 C12.66 30 13.32 30 14 30 C12.05620069 24.00804764 12.05620069 24.00804764 9.8125 18.125 C9 16 9 16 9 13 C8.4225 12.814375 7.845 12.62875 7.25 12.4375 C3.37866 9.96414389 1.57699194 5.87522382 0.25 1.5625 C0.1675 1.046875 0.085 0.53125 0 0 Z " fill="#9A70C8" transform="translate(334,125)"/>
<path d="M0 0 C0.33 0 0.66 0 1 0 C1.25379448 7.36003981 1.25379448 7.36003981 0.00390625 10.51171875 C-1.49519419 15.72065531 -1.24792733 20.79674612 -1.1875 26.1875 C-1.18685547 27.26064453 -1.18621094 28.33378906 -1.18554688 29.43945312 C-1.14796971 36.34112523 -0.74424338 43.13908665 0 50 C-0.66 50 -1.32 50 -2 50 C-3.87351592 47.18972612 -4.4205796 45.76131342 -5.0625 42.5625 C-5.71737054 39.31839468 -5.71737054 39.31839468 -6.55249023 36.11865234 C-7.03644617 33.82745233 -6.93957461 32.16047044 -6.625 29.84765625 C-6.52703125 29.07099609 -6.4290625 28.29433594 -6.328125 27.49414062 C-6.10989267 25.87688319 -5.89114511 24.25969519 -5.671875 22.64257812 C-5.1413722 18.42996706 -5.04522504 15.17436495 -6 11 C-5.57930124 8.22919094 -4.77912742 5.70403047 -4 3 C-2.68 2.67 -1.36 2.34 0 2 C0 1.34 0 0.68 0 0 Z " fill="#7B4AAA" transform="translate(127,230)"/>
<path d="M0 0 C0.3125 2.3125 0.3125 2.3125 0 5 C-2.5 6.8125 -2.5 6.8125 -5 8 C-4.67 8.66 -4.34 9.32 -4 10 C-4.39832031 10.50789062 -4.79664062 11.01578125 -5.20703125 11.5390625 C-9.69902711 17.37537828 -12.83283797 22.92060403 -15 30 C-15.495 31.5778125 -15.495 31.5778125 -16 33.1875 C-17.2834661 38.08071451 -18.15269887 43.01534548 -19 48 C-18.34 48 -17.68 48 -17 48 C-17 48.66 -17 49.32 -17 50 C-17.99 50 -18.98 50 -20 50 C-20.33 50.66 -20.66 51.32 -21 52 C-21.33 50.02 -21.66 48.04 -22 46 C-21.67 46 -21.34 46 -21 46 C-20.99742188 45.175 -20.99484375 44.35 -20.9921875 43.5 C-20.48966773 28.49140968 -14.73873979 14.2059321 -6 2 C-3.76461437 0.53998798 -2.65085947 0 0 0 Z " fill="#784CB3" transform="translate(119,196)"/>
<path d="M0 0 C0.495 1.485 0.495 1.485 1 3 C0.0409375 3.8971875 0.0409375 3.8971875 -0.9375 4.8125 C-3.20310389 6.90810337 -3.20310389 6.90810337 -4 10 C-5.31647119 10.69937532 -6.65022151 11.36729133 -8 12 C-8.33 12.66 -8.66 13.32 -9 14 C-9.66 14 -10.32 14 -11 14 C-11 14.66 -11 15.32 -11 16 C-12.3125 17.4375 -12.3125 17.4375 -14 19 C-14.474375 19.515625 -14.94875 20.03125 -15.4375 20.5625 C-17 22 -17 22 -19.125 22.9375 C-21.1924004 23.82083245 -21.1924004 23.82083245 -21.5625 25.9375 C-21.7790625 26.9584375 -21.7790625 26.9584375 -22 28 C-23.9701361 30.4178943 -24.95507691 30.98502564 -28 32 C-28.33 32.66 -28.66 33.32 -29 34 C-29.99 34 -30.98 34 -32 34 C-32.268125 34.763125 -32.53625 35.52625 -32.8125 36.3125 C-34.00431372 39.00976263 -34.73715627 40.18164343 -37 42 C-39.48046875 42.73046875 -39.48046875 42.73046875 -42.1875 43.1875 C-43.08855469 43.34605469 -43.98960937 43.50460937 -44.91796875 43.66796875 C-45.60503906 43.77753906 -46.29210937 43.88710938 -47 44 C-45.00581533 41.91517057 -42.98425799 40.21604108 -40.625 38.5625 C-25.74645995 27.45034083 -13.0502504 13.15896068 0 0 Z " fill="#9572CF" transform="translate(371,275)"/>
<path d="M0 0 C0 3 0 3 -2.1875 5.375 C-3.115625 6.24125 -4.04375 7.1075 -5 8 C-7.81846074 10.74619252 -10.4474728 13.5212949 -12.9375 16.5625 C-15.66591626 19.79147842 -18.32515599 21.91202045 -22 24 C-22.66 24 -23.32 24 -24 24 C-24 24.66 -24 25.32 -24 26 C-24.99 26.33 -25.98 26.66 -27 27 C-27.66 26.34 -28.32 25.68 -29 25 C-25.84734163 21.74808138 -22.68147656 18.50982239 -19.50292969 15.28320312 C-18.42469938 14.18492174 -17.35009428 13.08306858 -16.27929688 11.97753906 C-14.7347841 10.38422198 -13.17746302 8.80442864 -11.6171875 7.2265625 C-11.14505829 6.73378815 -10.67292908 6.24101379 -10.18649292 5.73330688 C-7.03395122 2.57869474 -4.31186862 1.09604918 0 0 Z " fill="#895BD0" transform="translate(439,211)"/>
<path d="M0 0 C1.07765625 0.04253906 2.1553125 0.08507812 3.265625 0.12890625 C4.39226562 0.18433594 5.51890625 0.23976563 6.6796875 0.296875 C7.783125 0.33683594 8.8865625 0.37679687 10.0234375 0.41796875 C16.44393533 0.70010464 22.32778214 1.46344397 28.5546875 3.046875 C29.4828125 3.211875 30.4109375 3.376875 31.3671875 3.546875 C33.66807024 4.07279105 35.49745974 4.90397069 37.5546875 6.046875 C37.2246875 7.036875 36.8946875 8.026875 36.5546875 9.046875 C35.50152344 8.76972656 34.44835937 8.49257812 33.36328125 8.20703125 C19.62369641 4.7031161 7.11026703 3.03596731 -6.90039062 6.01586914 C-12.17833235 7.13586838 -12.17833235 7.13586838 -15.4453125 6.046875 C-12.79792334 4.5862465 -11.55082916 4.046875 -8.4453125 4.046875 C-8.4453125 3.386875 -8.4453125 2.726875 -8.4453125 2.046875 C-5.02370279 -0.23419814 -3.99125872 -0.16236971 0 0 Z " fill="#9B6DD3" transform="translate(251.4453125,117.953125)"/>
<path d="M0 0 C5.1140283 1.40110364 8.7441786 3.64411186 12.9375 6.75 C13.55359131 7.20028564 14.16968262 7.65057129 14.80444336 8.11450195 C21.69129252 13.18686286 27.25223231 17.80641259 32 25 C29.21788056 24.62403791 27.4120716 24.32681541 25.1875 22.5625 C24 21 24 21 24 19 C23.443125 18.7525 22.88625 18.505 22.3125 18.25 C18.95956419 16.43760226 15.73442754 14.46885508 14 11 C12.17489003 10.21984379 10.31393324 9.52204594 8.4375 8.875 C6.91962891 8.34519531 6.91962891 8.34519531 5.37109375 7.8046875 C4.19740234 7.40636719 4.19740234 7.40636719 3 7 C3 5.68 3 4.36 3 3 C2.01 2.67 1.02 2.34 0 2 C0 1.34 0 0.68 0 0 Z " fill="#A688E1" transform="translate(448,55)"/>
<path d="M0 0 C-0.33 0.66 -0.66 1.32 -1 2 C-5.62304372 1.53769563 -8.86804851 1.11010338 -13 -1 C-14.46701866 -1.40152747 -15.94787439 -1.75528085 -17.4375 -2.0625 C-18.17871094 -2.21847656 -18.91992188 -2.37445313 -19.68359375 -2.53515625 C-20.44800781 -2.68855469 -21.21242188 -2.84195313 -22 -3 C-22.72735352 -3.16806152 -23.45470703 -3.33612305 -24.20410156 -3.50927734 C-27.50744318 -4.08906399 -30.69813069 -4.21654006 -34.05078125 -4.31640625 C-34.70958786 -4.33718735 -35.36839447 -4.35796844 -36.04716492 -4.37937927 C-38.13551185 -4.44435489 -40.22397612 -4.50351575 -42.3125 -4.5625 C-43.7350378 -4.60573479 -45.15756406 -4.6493506 -46.58007812 -4.69335938 C-50.05326297 -4.79998216 -53.52657726 -4.90139348 -57 -5 C-57 -5.33 -57 -5.66 -57 -6 C-37.86523895 -9.21088078 -18.00618084 -7.15735434 0 0 Z " fill="#997BD7" transform="translate(299,99)"/>
<path d="M0 0 C0.66 0.66 1.32 1.32 2 2 C1.72719509 4.34118197 1.38228138 6.67418477 1 9 C0.91127255 11.54831932 0.86940395 14.09857495 0.8671875 16.6484375 C0.86623077 17.34643463 0.86527405 18.04443176 0.86428833 18.76358032 C0.86361297 20.22406099 0.86542191 21.68454477 0.86962891 23.14501953 C0.87503544 25.38971557 0.86963738 27.63421594 0.86328125 29.87890625 C0.86394119 31.30208378 0.86522061 32.72526118 0.8671875 34.1484375 C0.86831543 35.43927246 0.86944336 36.73010742 0.87060547 38.06005859 C0.66355301 40.88866347 0.66355301 40.88866347 2 42 C2.07179964 43.51928038 2.08392007 45.04167482 2.0625 46.5625 C2.05347656 47.38878906 2.04445312 48.21507812 2.03515625 49.06640625 C2.02355469 49.70449219 2.01195312 50.34257812 2 51 C2.66 51.33 3.32 51.66 4 52 C3.34 52.66 2.68 53.32 2 54 C-5.73284718 37.32394694 -3.49258861 17.35899696 0 0 Z " fill="#966DC3" transform="translate(194,232)"/>
<path d="M0 0 C3.63 0.66 7.26 1.32 11 2 C11.66 3.98 12.32 5.96 13 8 C15.31 8 17.62 8 20 8 C20.33 8.66 20.66 9.32 21 10 C23.64 10 26.28 10 29 10 C28.67 10.99 28.34 11.98 28 13 C19.43417916 13.51394925 13.00122846 13.22655071 6.28515625 7.55078125 C5 6 5 6 5 3 C3.35 2.67 1.7 2.34 0 2 C0 1.34 0 0.68 0 0 Z " fill="#6E3EC0" transform="translate(140,336)"/>
<path d="M0 0 C1.625 1.5625 1.625 1.5625 3 4 C1.62315998 11.43493611 -1.73129436 17.60876632 -7 23 C-10.3125 24.375 -10.3125 24.375 -13 25 C-10.57052373 19.8508003 -8.06143989 14.93581748 -4.8125 10.25 C-2.52677523 6.94186878 -1.00922355 3.93597185 0 0 Z " fill="#9362D3" transform="translate(468,168)"/>
<path d="M0 0 C-1 2 -1 2 -2 3 C-3.66617115 3.04063832 -5.33388095 3.042721 -7 3 C-7 3.99 -7 4.98 -7 6 C-9.97 6.66 -12.94 7.32 -16 8 C-16 8.66 -16 9.32 -16 10 C-17.65 10 -19.3 10 -21 10 C-21.66 11.65 -22.32 13.3 -23 15 C-24.32 15 -25.64 15 -27 15 C-27.33 15.99 -27.66 16.98 -28 18 C-30.0625 19.6875 -30.0625 19.6875 -32 21 C-33.32 20.34 -34.64 19.68 -36 19 C-35.34 19 -34.68 19 -34 19 C-34 18.34 -34 17.68 -34 17 C-26.38240813 10.11090964 -17.33554336 5.98862707 -8 2 C-7.08992188 1.60554688 -6.17984375 1.21109375 -5.2421875 0.8046875 C-3 0 -3 0 0 0 Z " fill="#A184D8" transform="translate(373,50)"/>
<path d="M0 0 C0.66 0.99 1.32 1.98 2 3 C1.030625 3.598125 0.06125 4.19625 -0.9375 4.8125 C-4.23052042 6.71127509 -4.23052042 6.71127509 -5 10 C-5.66 10 -6.32 10 -7 10 C-7.66 11.65 -8.32 13.3 -9 15 C-9.66 15 -10.32 15 -11 15 C-11.2475 15.5775 -11.495 16.155 -11.75 16.75 C-13.23099112 19.41578402 -14.61907089 21.08202933 -17 23 C-20.25 23.75 -20.25 23.75 -23 24 C-23.33 25.32 -23.66 26.64 -24 28 C-24.99 27.67 -25.98 27.34 -27 27 C-26.2575 26.278125 -25.515 25.55625 -24.75 24.8125 C-22.04961342 22.16513453 -22.04961342 22.16513453 -20.1875 19.625 C-17.78464725 16.7415767 -15.15349658 14.47642539 -12.3046875 12.046875 C-8.00969597 8.23234015 -4.02311348 4.09731024 0 0 Z " fill="#7B54BC" transform="translate(190,119)"/>
<path d="M0 0 C0.99 0.33 1.98 0.66 3 1 C1.37660195 2.70884005 -0.29319053 4.37446717 -2 6 C-2.66 6 -3.32 6 -4 6 C-4.33 6.99 -4.66 7.98 -5 9 C-5.66 9 -6.32 9 -7 9 C-7.2578125 9.59683594 -7.515625 10.19367188 -7.78125 10.80859375 C-9.10058422 13.18085817 -10.3874932 14.38413125 -12.5 16.0625 C-14.93664912 18.00872186 -16.22262121 19.33393182 -18 22 C-18.66 22 -19.32 22 -20 22 C-19.53829217 17.29058015 -18.98551094 13.75953229 -16 10 C-14.125 9.375 -14.125 9.375 -12 9 C-7.97795416 6.93462511 -4.90060738 4.19967217 -1.6484375 1.109375 C-1.10445313 0.74328125 -0.56046875 0.3771875 0 0 Z " fill="#AA7FDB" transform="translate(356,90)"/>
<path d="M0 0 C0.33 0.99 0.66 1.98 1 3 C-1.25 6.1875 -1.25 6.1875 -4 9 C-4.99 9 -5.98 9 -7 9 C-7.10441406 9.58265625 -7.20882813 10.1653125 -7.31640625 10.765625 C-8.10293617 13.33645423 -9.17565891 14.7340058 -10.9375 16.75 C-11.46214844 17.36359375 -11.98679687 17.9771875 -12.52734375 18.609375 C-14 20 -14 20 -16 20 C-16.20625 20.598125 -16.4125 21.19625 -16.625 21.8125 C-18.53737004 24.85490688 -20.72121267 25.66171946 -24 27 C-24.99 27 -25.98 27 -27 27 C-18 18 -9 9 0 0 Z " fill="#9979CE" transform="translate(409,237)"/>
<path d="M0 0 C0.66 0.33 1.32 0.66 2 1 C2.75 3.375 2.75 3.375 3 6 C2.01 7.485 2.01 7.485 1 9 C1.66 9.33 2.32 9.66 3 10 C3.89159574 12.74908686 4.30157945 14.31067554 3.125 17 C2.75375 17.66 2.3825 18.32 2 19 C1.835 19.845625 1.67 20.69125 1.5 21.5625 C1 24 1 24 -1 27 C-0.34 27 0.32 27 1 27 C-0.05875074 30.40312738 -1.00902154 33.01353231 -3 36 C-3.99 36 -4.98 36 -6 36 C-5.01 31.71 -4.02 27.42 -3 23 C-2.01 23 -1.02 23 0 23 C0 15.41 0 7.82 0 0 Z " fill="#915FD4" transform="translate(475,132)"/>
<path d="M0 0 C-0.33 1.98 -0.66 3.96 -1 6 C0.83284443 7.12516085 0.83284443 7.12516085 3 8 C3.99 7.67 4.98 7.34 6 7 C11 12.75 11 12.75 11 15 C13.475 15.495 13.475 15.495 16 16 C13 18 13 18 10.9375 17.8125 C9 17 9 17 7 14 C5.67267648 13.64348749 4.33841672 13.31229724 3 13 C1.078125 11.6953125 1.078125 11.6953125 -0.75 10.125 C-1.36359375 9.61195312 -1.9771875 9.09890625 -2.609375 8.5703125 C-4 7 -4 7 -4 4 C-5.43750191 2.31201173 -5.43750191 2.31201173 -7 1 C-2.25 0 -2.25 0 0 0 Z " fill="#A175E7" transform="translate(448,81)"/>
<path d="M0 0 C0.99 0 1.98 0 3 0 C0.15669079 9.84333443 -7.18422545 17.56654588 -14 25 C-14.99 24.34 -15.98 23.68 -17 23 C-17.1875 20.375 -17.1875 20.375 -17 18 C-16.21625 17.87625 -15.4325 17.7525 -14.625 17.625 C-11.85942178 17.20882007 -11.85942178 17.20882007 -10 15 C-9.01 15 -8.02 15 -7 15 C-6.896875 14.4225 -6.79375 13.845 -6.6875 13.25 C-6 11 -6 11 -4.625 9.1875 C-2.47870968 6.29826303 -1.34696582 3.33534394 0 0 Z " fill="#A47AD2" transform="translate(489,189)"/>
<path d="M0 0 C8.30299548 0.17978927 15.74265657 1.80093507 23 6 C23.33 6.99 23.66 7.98 24 9 C25.49985609 10.66710346 25.49985609 10.66710346 27 12 C26.67 12.99 26.34 13.98 26 15 C25.34 15 24.68 15 24 15 C23.87625 14.360625 23.7525 13.72125 23.625 13.0625 C23.41875 12.381875 23.2125 11.70125 23 11 C22.34 10.67 21.68 10.34 21 10 C21 9.34 21 8.68 21 8 C18.36 8 15.72 8 13 8 C13 7.01 13 6.02 13 5 C12.39671875 4.97421875 11.7934375 4.9484375 11.171875 4.921875 C4.5626072 4.45283019 4.5626072 4.45283019 1.4375 1.9375 C0.963125 1.298125 0.48875 0.65875 0 0 Z " fill="#9874E4" transform="translate(425,48)"/>
<path d="M0 0 C3.20997576 9.62992728 -0.68790018 22.94961229 -4.78125 31.84765625 C-6 34 -6 34 -8 36 C-7.505 31.545 -7.505 31.545 -7 27 C-6.34 27 -5.68 27 -5 27 C-4.24796652 21.2041124 -4.24796652 21.2041124 -4.0625 15.375 C-3.97528195 12.06071421 -2.98750286 9.14766537 -2 6 C-2.66 5.67 -3.32 5.34 -4 5 C-2.68 3.35 -1.36 1.7 0 0 Z " fill="#915BD2" transform="translate(500,153)"/>
<path d="M0 0 C1.31625194 2.63250388 0.74813658 3.80179056 0.0625 6.625 C-0.13214844 7.44226563 -0.32679688 8.25953125 -0.52734375 9.1015625 C-0.76130859 10.04128906 -0.76130859 10.04128906 -1 11 C-1.33 11 -1.66 11 -2 11 C-2.66 16.94 -3.32 22.88 -4 29 C-6.09875589 24.80248822 -6.47047142 22.13334719 -6.8125 17.5 C-6.92207031 16.1903125 -7.03164062 14.880625 -7.14453125 13.53125 C-6.98708588 9.6844767 -6.39540519 8.82249293 -4 6 C-4 4.68 -4 3.36 -4 2 C-2.68 1.34 -1.36 0.68 0 0 Z " fill="#7137B7" transform="translate(223,231)"/>
<path d="M0 0 C0.66 0 1.32 0 2 0 C2.33720652 14.3442464 2.24029254 27.97801978 -1 42 C-1.33 42 -1.66 42 -2 42 C-1.33333333 28 -0.66666667 14 0 0 Z " fill="#B18DD9" transform="translate(501,130)"/>
<path d="M0 0 C1.14566251 3.43698752 0.70850133 4.52014995 0 8 C-0.11964499 10.72122786 -0.18991861 13.4043665 -0.1875 16.125 C-0.18814453 16.87257568 -0.18878906 17.62015137 -0.18945312 18.39038086 C-0.13244616 24.41303664 0.58163631 30.13658582 2 36 C1.01 35.67 0.02 35.34 -1 35 C-3.30569452 24.13029726 -4.5937509 11.93670763 -2 1 C-1.34 0.67 -0.68 0.34 0 0 Z " fill="#8156B1" transform="translate(222,240)"/>
<path d="M0 0 C0.99 0.66 1.98 1.32 3 2 C-2.28 7.28 -7.56 12.56 -13 18 C-13.66 17.67 -14.32 17.34 -15 17 C-13.71480435 14.13302508 -12.42870746 12.02392288 -10 10 C-9.34 10 -8.68 10 -8 10 C-7.979375 8.906875 -7.95875 7.81375 -7.9375 6.6875 C-7 3 -7 3 -3.625 0.9375 C-2.42875 0.628125 -1.2325 0.31875 0 0 Z " fill="#976BD2" transform="translate(471,213)"/>
<path d="M0 0 C0.99 0.33 1.98 0.66 3 1 C-1.98404168 7.03331362 -7.41915303 12.5184171 -13 18 C-13.33 17.34 -13.66 16.68 -14 16 C-14.66 15.67 -15.32 15.34 -16 15 C-12.25 13 -12.25 13 -10 13 C-10 12.34 -10 11.68 -10 11 C-9.34 11 -8.68 11 -8 11 C-8.33 9.02 -8.66 7.04 -9 5 C-7.02 4.67 -5.04 4.34 -3 4 C-2.67 3.01 -2.34 2.02 -2 1 C-1.34 0.67 -0.68 0.34 0 0 Z " fill="#8F61D2" transform="translate(441,243)"/>
<path d="M0 0 C0.33 0 0.66 0 1 0 C1 1.65 1 3.3 1 5 C0.01 5 -0.98 5 -2 5 C-2.66 15.23 -3.32 25.46 -4 36 C-4.99 36 -5.98 36 -7 36 C-6.93417725 35.42032471 -6.86835449 34.84064941 -6.80053711 34.2434082 C-6.50495326 31.60058743 -6.22112636 28.95662965 -5.9375 26.3125 C-5.83373047 25.40048828 -5.72996094 24.48847656 -5.62304688 23.54882812 C-5.52958984 22.66259766 -5.43613281 21.77636719 -5.33984375 20.86328125 C-5.25081787 20.05157471 -5.16179199 19.23986816 -5.07006836 18.40356445 C-4.99380954 15.7876478 -5.45400049 13.55084147 -6 11 C-5.57930124 8.22919094 -4.77912742 5.70403047 -4 3 C-2.68 2.67 -1.36 2.34 0 2 C0 1.34 0 0.68 0 0 Z " fill="#6829B2" transform="translate(127,230)"/>
<path d="M0 0 C0.66 0.99 1.32 1.98 2 3 C5.06556598 3.73343428 5.06556598 3.73343428 8 4 C8 4.66 8 5.32 8 6 C9.65 6 11.3 6 13 6 C12.67 6.66 12.34 7.32 12 8 C10.2282281 7.93983797 8.45741321 7.85100672 6.6875 7.75 C5.20830078 7.68039062 5.20830078 7.68039062 3.69921875 7.609375 C1 7 1 7 -0.85546875 4.953125 C-1.23316406 4.30859375 -1.61085937 3.6640625 -2 3 C-3.65 3.33 -5.3 3.66 -7 4 C-7.66 2.68 -8.32 1.36 -9 0 C-5.85135005 -1.57432497 -3.35512575 -0.71895552 0 0 Z " fill="#6A3FC8" transform="translate(168,321)"/>
<path d="M0 0 C0.91974609 -0.00257813 1.83949219 -0.00515625 2.78710938 -0.0078125 C4.22473633 0.00378906 4.22473633 0.00378906 5.69140625 0.015625 C7.12323242 0.00402344 7.12323242 0.00402344 8.58398438 -0.0078125 C9.50501953 -0.00523437 10.42605469 -0.00265625 11.375 0 C12.21474365 0.00225586 13.0544873 0.00451172 13.91967773 0.00683594 C16.43615878 0.2858308 18.07787091 1.00319228 20.25390625 2.265625 C15.34464788 3.24592065 10.67163052 3.41672225 5.69140625 3.390625 C4.57862305 3.39642578 4.57862305 3.39642578 3.44335938 3.40234375 C-0.41109681 3.39547918 -4.00040437 3.20019304 -7.74609375 2.265625 C-4.54572717 0.13204728 -3.68091508 0.00990159 0 0 Z " fill="#A57FDD" transform="translate(284.74609375,353.734375)"/>
<path d="M0 0 C3.02419525 0.58803797 6.01758453 1.22678118 9 2 C9 2.66 9 3.32 9 4 C9.598125 4.103125 10.19625 4.20625 10.8125 4.3125 C13.38757109 5.12180806 14.48151913 5.76223872 16 8 C15.6875 10.6875 15.6875 10.6875 15 13 C14.56429688 12.61328125 14.12859375 12.2265625 13.6796875 11.828125 C10.7441641 9.26113052 7.86618105 6.8315556 4.5625 4.75 C3.716875 4.1725 2.87125 3.595 2 3 C2 2.34 2 1.68 2 1 C1.34 0.67 0.68 0.34 0 0 Z " fill="#8858D6" transform="translate(297,132)"/>
<path d="M0 0 C0.33 0.66 0.66 1.32 1 2 C-1.57690069 5.13406841 -4.13224264 8.13224264 -7 11 C-7.99 12.485 -7.99 12.485 -9 14 C-9.99 14 -10.98 14 -12 14 C-12.33 15.32 -12.66 16.64 -13 18 C-14.98 18.33 -16.96 18.66 -19 19 C-15.59304394 14.83204001 -12.224305 11.3577809 -8 8 C-7.10398059 6.97635765 -6.22949436 5.93355271 -5.375 4.875 C-3 2 -3 2 0 0 Z " fill="#A68DD2" transform="translate(336,70)"/>
<path d="M0 0 C1.98 0 3.96 0 6 0 C6 0.66 6 1.32 6 2 C5.01 2.495 5.01 2.495 4 3 C4 3.66 4 4.32 4 5 C4.66 5.33 5.32 5.66 6 6 C6 7.32 6 8.64 6 10 C7.65 9.34 9.3 8.68 11 8 C11 9.98 11 11.96 11 14 C7.41209425 13.70100785 6.21833224 13.23013399 3.6875 10.5625 C2 8 2 8 2 6 C1.34 6 0.68 6 0 6 C0 4.02 0 2.04 0 0 Z " fill="#6B3AC4" transform="translate(124,320)"/>
<path d="M0 0 C2 1 2 1 3.125 3.875 C4.26018963 7.92924868 4 11.80833824 4 16 C4.66 16 5.32 16 6 16 C6.33 17.65 6.66 19.3 7 21 C5.68 21 4.36 21 3 21 C-0.32270836 13.93924474 -0.31806054 7.7276932 0 0 Z " fill="#743FB0" transform="translate(99,273)"/>
<path d="M0 0 C1.09570312 0.00902344 2.19140625 0.01804687 3.3203125 0.02734375 C4.58488281 0.04474609 4.58488281 0.04474609 5.875 0.0625 C1.89358986 4.04391014 -4.70180953 3.81194084 -10.125 4.0625 C-18.46661222 4.0297364 -26.79991044 3.55867142 -35.125 3.0625 C-31.8801306 1.1337481 -29.52381853 0.83443267 -25.7734375 0.90234375 C-24.75765625 0.91330078 -23.741875 0.92425781 -22.6953125 0.93554688 C-21.11363281 0.96745117 -21.11363281 0.96745117 -19.5 1 C-17.40371325 1.0343445 -15.30735245 1.0645054 -13.2109375 1.08984375 C-11.8194751 1.11679321 -11.8194751 1.11679321 -10.39990234 1.14428711 C-6.80476088 1.01503487 -3.81627597 -0.04059868 0 0 Z " fill="#7437C0" transform="translate(215.125,350.9375)"/>
<path d="M0 0 C1.70884005 1.62339805 3.37446717 3.29319053 5 5 C5 5.66 5 6.32 5 7 C5.66 7 6.32 7 7 7 C10.20028783 11.10293312 12.98037681 15.17534461 15 20 C14.67 20.66 14.34 21.32 14 22 C13.01 21.67 12.02 21.34 11 21 C9.5522078 18.10441559 9 16.25811062 9 13 C8.4225 12.814375 7.845 12.62875 7.25 12.4375 C3.37866 9.96414389 1.57699194 5.87522382 0.25 1.5625 C0.1675 1.046875 0.085 0.53125 0 0 Z " fill="#9F83D2" transform="translate(334,125)"/>
<path d="M0 0 C-2.15414871 2.15414871 -3.94350449 3.02244392 -6.6875 4.3125 C-10.03074841 5.93098008 -12.99108248 7.61482075 -15.9375 9.875 C-16.948125 10.57625 -17.95875 11.2775 -19 12 C-19.99 11.67 -20.98 11.34 -22 11 C-21.67 10.01 -21.34 9.02 -21 8 C-20.401875 7.855625 -19.80375 7.71125 -19.1875 7.5625 C-16.84285848 7.16874521 -16.84285848 7.16874521 -15.25 5.125 C-11.10221542 1.2076479 -5.69957139 -0.53433482 0 0 Z " fill="#AB82DF" transform="translate(379,78)"/>
<path d="M0 0 C1.32 0.33 2.64 0.66 4 1 C2.98733788 3.02532424 1.97450448 5.04949131 0.9375 7.0625 C-0.11611949 9.13410175 -0.11611949 9.13410175 -1 12 C-1.65129797 13.34090759 -2.31513275 14.67592331 -3 16 C-4.83626701 13.29960733 -4.99597623 11.88934639 -4.875 8.5625 C-3.93509065 4.73572623 -2.67035534 2.84263633 0 0 Z " fill="#7A44BE" transform="translate(200,222)"/>
<path d="M0 0 C0.33 0.66 0.66 1.32 1 2 C0.67 2.99 0.34 3.98 0 5 C0.66 5.33 1.32 5.66 2 6 C2 6.66 2 7.32 2 8 C2.99 8.33 3.98 8.66 5 9 C4.34 10.65 3.68 12.3 3 14 C2.01 14 1.02 14 0 14 C-4.07877462 6.9452954 -4.07877462 6.9452954 -3.75 3 C-3.5025 2.34 -3.255 1.68 -3 1 C-2.01 0.67 -1.02 0.34 0 0 Z " fill="#6E3CB8" transform="translate(109,295)"/>
<path d="M0 0 C0.33 1.32 0.66 2.64 1 4 C-1.6848222 7.9121695 -3.36870023 10.04180005 -8 11 C-9.28436734 12.9837767 -9.28436734 12.9837767 -10 15 C-11.32 14.67 -12.64 14.34 -14 14 C-9.38 9.38 -4.76 4.76 0 0 Z " fill="#9B79D2" transform="translate(433,213)"/>
<path d="M0 0 C1.51171875 1.2109375 1.51171875 1.2109375 3 3 C3.14453125 5.1640625 3.14453125 5.1640625 2.8125 7.625 C2.63847656 8.93984375 2.63847656 8.93984375 2.4609375 10.28125 C1.7911036 14.23213468 0.94236319 18.10489883 0 22 C-0.33 22 -0.66 22 -1 22 C-1.02895225 18.70835171 -1.0467823 15.41673601 -1.0625 12.125 C-1.07506836 10.71927734 -1.07506836 10.71927734 -1.08789062 9.28515625 C-1.09111328 8.38925781 -1.09433594 7.49335938 -1.09765625 6.5703125 C-1.10289307 5.74289551 -1.10812988 4.91547852 -1.11352539 4.06298828 C-1 2 -1 2 0 0 Z " fill="#9367C5" transform="translate(355,200)"/>
<path d="M0 0 C0.33 0 0.66 0 1 0 C1.04898438 1.14597656 1.09796875 2.29195312 1.1484375 3.47265625 C1.22352801 5.00262535 1.29907306 6.53257218 1.375 8.0625 C1.4059375 8.81466797 1.436875 9.56683594 1.46875 10.34179688 C1.66024444 14.02806488 2.03210866 17.11143594 3.0625 20.6875 C4.03353993 24.11850774 4.05843682 26.42666174 3.625 29.9375 C3.51414062 30.89527344 3.40328125 31.85304688 3.2890625 32.83984375 C3.19367188 33.55269531 3.09828125 34.26554687 3 35 C0.38697574 30.12235472 -0.12375586 26.23624182 -0.09765625 20.703125 C-0.09443359 19.49785156 -0.09121094 18.29257812 -0.08789062 17.05078125 C-0.07951172 15.79652344 -0.07113281 14.54226563 -0.0625 13.25 C-0.05798828 11.98027344 -0.05347656 10.71054687 -0.04882812 9.40234375 C-0.03704556 6.26818164 -0.02059416 3.13411459 0 0 Z " fill="#8252B9" transform="translate(96,247)"/>
<path d="M0 0 C1.20119766 3.60359297 0.69352775 5.10969456 -0.21484375 8.76171875 C-0.48876953 9.87998047 -0.76269531 10.99824219 -1.04492188 12.15039062 C-1.33947266 13.31763672 -1.63402344 14.48488281 -1.9375 15.6875 C-2.22818359 16.86634766 -2.51886719 18.04519531 -2.81835938 19.25976562 C-3.53833004 22.17505666 -4.265818 25.08826138 -5 28 C-5.33 28 -5.66 28 -6 28 C-6.34798953 21.82640804 -5.92360086 16.89970038 -3.7265625 11.109375 C-2.83669645 8.74132239 -2.83669645 8.74132239 -2.4375 5.0625 C-2 2 -2 2 0 0 Z " fill="#976DC9" transform="translate(271,170)"/>
<path d="M0 0 C2 3 2 3 1.625 5.6875 C1.41875 6.450625 1.2125 7.21375 1 8 C0.34 8 -0.32 8 -1 8 C-1.0825 8.5775 -1.165 9.155 -1.25 9.75 C-2.21797787 12.6539336 -3.68694284 14.03740604 -6 16 C-6.66 16 -7.32 16 -8 16 C-8 16.99 -8 17.98 -8 19 C-8.66 18.67 -9.32 18.34 -10 18 C-6.66666667 12 -3.33333333 6 0 0 Z " fill="#895FBC" transform="translate(213,192)"/>
<path d="M0 0 C-2.7578993 2.92986993 -5.50391411 5.15493064 -8.9375 7.25 C-9.77152344 7.77078125 -10.60554688 8.2915625 -11.46484375 8.828125 C-14.21471825 10.09925343 -16.00882725 10.23544115 -19 10 C-19.33 9.34 -19.66 8.68 -20 8 C-18.56445975 7.49440092 -17.1264798 6.9957251 -15.6875 6.5 C-14.88699219 6.2215625 -14.08648437 5.943125 -13.26171875 5.65625 C-11 5 -11 5 -8 5 C-8.33 4.01 -8.66 3.02 -9 2 C-5.5647952 -0.29013653 -4.014669 -0.17842973 0 0 Z " fill="#855EBD" transform="translate(349,337)"/>
<path d="M0 0 C0.33 0.66 0.66 1.32 1 2 C-0.1875 5.0625 -0.1875 5.0625 -2 8 C-4.1875 8.875 -4.1875 8.875 -6 9 C-6.1546875 9.928125 -6.1546875 9.928125 -6.3125 10.875 C-7 13 -7 13 -10 15 C-10.33 15.99 -10.66 16.98 -11 18 C-12.32 17.34 -13.64 16.68 -15 16 C-14.08476562 15.09636719 -13.16953125 14.19273437 -12.2265625 13.26171875 C-11.02590942 12.07044577 -9.82539585 10.87903217 -8.625 9.6875 C-8.02171875 9.09259766 -7.4184375 8.49769531 -6.796875 7.88476562 C-6.21679688 7.30791016 -5.63671875 6.73105469 -5.0390625 6.13671875 C-4.50490723 5.60780029 -3.97075195 5.07888184 -3.42041016 4.53393555 C-1.78498535 2.8489902 -1.78498535 2.8489902 0 0 Z " fill="#9B77D0" transform="translate(310,238)"/>
<path d="M0 0 C-2.29324257 2.59654239 -4.42692848 3.77597937 -7.625 5.0625 C-11.01267992 6.24652127 -11.01267992 6.24652127 -13 9 C-13.66 9 -14.32 9 -15 9 C-15 10.65 -15 12.3 -15 14 C-15.33 14 -15.66 14 -16 14 C-16.69959727 8.84047012 -16.69959727 8.84047012 -16 6 C-11.50723256 1.68526763 -6.14447102 -0.16606678 0 0 Z " fill="#8765C0" transform="translate(220,168)"/>
<path d="M0 0 C2.31720603 4.05511056 1.8135704 8.06080864 1.5 12.625 C-0.28806668 9.28051901 -0.928904 6.3779166 -1.5 2.625 C-1.83 1.965 -2.16 1.305 -2.5 0.625 C-3.469375 0.79 -4.43875 0.955 -5.4375 1.125 C-9.79487763 1.75896273 -14.10630704 1.7146672 -18.5 1.625 C-12.69794534 -1.32397819 -6.05300251 -3.32915138 0 0 Z " fill="#8B64C1" transform="translate(271.5,157.375)"/>
<path d="M0 0 C0.99 0 1.98 0 3 0 C6.64650323 4.42000392 7.84710467 8.42767259 9 14 C7.35 14.33 5.7 14.66 4 15 C3.67 14.34 3.34 13.68 3 13 C3.99 12.01 4.98 11.02 6 10 C5.34 10 4.68 10 4 10 C3.67 8.68 3.34 7.36 3 6 C2.34 6 1.68 6 1 6 C0.67 4.02 0.34 2.04 0 0 Z " fill="#A37DDC" transform="translate(478,80)"/>
<path d="M0 0 C3.84612364 1.56693926 6.12412231 4.05564903 9 7 C10.96699166 8.71123624 12.97750749 10.35378517 15 12 C11.60001273 13.13332909 11.1486026 12.96900853 8.0625 11.5 C3.58788788 9.14320614 2.03106287 6.56989147 0 2 C0 1.34 0 0.68 0 0 Z " fill="#8665C5" transform="translate(237,302)"/>
<path d="M0 0 C0 1.65 0 3.3 0 5 C-0.99 4.67 -1.98 4.34 -3 4 C-3.33 5.65 -3.66 7.3 -4 9 C-4.66 9 -5.32 9 -6 9 C-6.20625 9.61875 -6.4125 10.2375 -6.625 10.875 C-8.54775888 13.84653645 -10.66594527 14.13024659 -14 15 C-3.36363636 0 -3.36363636 0 0 0 Z " fill="#8060B8" transform="translate(132,178)"/>
<path d="M0 0 C0 0.99 0 1.98 0 3 C-0.99 3.33 -1.98 3.66 -3 4 C-3.144375 4.5775 -3.28875 5.155 -3.4375 5.75 C-4.21565674 8.86262696 -5.85543552 10.66047511 -8 13 C-8.66 13 -9.32 13 -10 13 C-9.53829217 8.29058015 -8.98551094 4.75953229 -6 1 C-3.82975971 0.14505685 -2.31702962 0 0 0 Z " fill="#8F5AD6" transform="translate(346,99)"/>
<path d="M0 0 C5.12129941 -0.37472923 8.35895823 0.93731477 13 3 C14.32 3 15.64 3 17 3 C17.33 3.99 17.66 4.98 18 6 C20.00016466 7.20882096 20.00016466 7.20882096 22 8 C21.34 8 20.68 8 20 8 C19.67 8.66 19.34 9.32 19 10 C18.38253906 9.60167969 17.76507813 9.20335938 17.12890625 8.79296875 C11.57465778 5.31839322 6.32007034 2.74030922 0 1 C0 0.67 0 0.34 0 0 Z " fill="#B187E8" transform="translate(424,77)"/>
<path d="M0 0 C0.33 0.66 0.66 1.32 1 2 C0.01 3.485 0.01 3.485 -1 5 C-2.32 5 -3.64 5 -5 5 C-5.33 5.99 -5.66 6.98 -6 8 C-8.0625 9.6875 -8.0625 9.6875 -10 11 C-11.32 10.34 -12.64 9.68 -14 9 C-13.34 9 -12.68 9 -12 9 C-12 8.34 -12 7.68 -12 7 C-10.13671875 5.52734375 -10.13671875 5.52734375 -7.6875 3.9375 C-6.88699219 3.41027344 -6.08648437 2.88304687 -5.26171875 2.33984375 C-3 1 -3 1 0 0 Z " fill="#9C7CD2" transform="translate(351,60)"/>
<path d="M0 0 C9.1354877 1.72783872 9.1354877 1.72783872 13.375 3.0625 C18.52893883 4.39541522 23.69920383 4.66924425 29 5 C29 5.33 29 5.66 29 6 C26.4374282 6.02710123 23.87514635 6.04688771 21.3125 6.0625 C20.2306543 6.07506836 20.2306543 6.07506836 19.12695312 6.08789062 C15.28444618 6.10543632 11.73360474 5.93524221 8 5 C8 4.34 8 3.68 8 3 C7.05125 3.061875 6.1025 3.12375 5.125 3.1875 C4.09375 3.125625 3.0625 3.06375 2 3 C1.34 2.01 0.68 1.02 0 0 Z " fill="#7E63C2" transform="translate(168,322)"/>
<path d="M0 0 C0.99 0 1.98 0 3 0 C3 0.66 3 1.32 3 2 C2.34 2.66 1.68 3.32 1 4 C1 4.99 1 5.98 1 7 C-0.45742463 7.08096803 -1.91612807 7.13917774 -3.375 7.1875 C-4.18710937 7.22230469 -4.99921875 7.25710938 -5.8359375 7.29296875 C-6.55007813 7.19628906 -7.26421875 7.09960938 -8 7 C-8.66 6.01 -9.32 5.02 -10 4 C-7.02223754 2.34568752 -4.3332237 1.63060989 -1 1 C-0.67 0.67 -0.34 0.34 0 0 Z " fill="#713CBA" transform="translate(280,302)"/>
<path d="M0 0 C0.33 0 0.66 0 1 0 C1.32644414 4.16216275 1.40650982 6.36313462 -0.875 9.9375 C-3 12 -3 12 -5 12 C-5.33 13.32 -5.66 14.64 -6 16 C-7.32 16.33 -8.64 16.66 -10 17 C-8.0329916 12.73979589 -5.29919201 9.12882056 -2.55859375 5.33984375 C-0.85599119 3.00588292 -0.85599119 3.00588292 0 0 Z " fill="#9B74C7" transform="translate(322,221)"/>
<path d="M0 0 C1.44139075 4.32417224 0.02415788 7.35903495 -1.25 11.625 C-1.46785156 12.41390625 -1.68570312 13.2028125 -1.91015625 14.015625 C-2.50578767 16.04286176 -3.24400871 18.02694581 -4 20 C-4.99 20.33 -5.98 20.66 -7 21 C-7.33 20.01 -7.66 19.02 -8 18 C-7.34 17.67 -6.68 17.34 -6 17 C-5.52412903 15.40243317 -5.05756222 13.80145053 -4.640625 12.1875 C-3.41711332 8.00965525 -1.66531915 4.01778455 0 0 Z " fill="#8757BF" transform="translate(264,198)"/>
<path d="M0 0 C-0.66 1.32 -1.32 2.64 -2 4 C-2 3.34 -2 2.68 -2 2 C-2.53625 2.309375 -3.0725 2.61875 -3.625 2.9375 C-6 4 -6 4 -9.0625 4.1875 C-12.03303522 4.65974103 -12.03303522 4.65974103 -13.05078125 6.6171875 C-13.79524791 8.37426995 -14.40644738 10.186367 -15 12 C-15.66 12 -16.32 12 -17 12 C-17 10.35 -17 8.7 -17 7 C-16.34 7 -15.68 7 -15 7 C-14.7525 6.1028125 -14.7525 6.1028125 -14.5 5.1875 C-11.41204994 0.68423949 -5.22940546 -0.49025676 0 0 Z " fill="#723EC6" transform="translate(222,170)"/>
<path d="M0 0 C0.99 0.33 1.98 0.66 3 1 C2.360625 1.721875 1.72125 2.44375 1.0625 3.1875 C-1.16310549 5.79592289 -1.16310549 5.79592289 -1.5 8.6875 C-1.665 9.450625 -1.83 10.21375 -2 11 C-4.0625 12.3125 -4.0625 12.3125 -6 13 C-6.99 12.34 -7.98 11.68 -9 11 C-7.88625 9.948125 -7.88625 9.948125 -6.75 8.875 C-4.02182777 6.02281994 -2.08697046 3.3236937 0 0 Z " fill="#8958D7" transform="translate(337,70)"/>
<path d="M0 0 C2.00980131 0.26797351 4.0103005 0.60986284 6 1 C9.26410357 0.62382706 9.26410357 0.62382706 12 0 C11.67 0.99 11.34 1.98 11 3 C9.0390625 3.6953125 9.0390625 3.6953125 6.625 4.125 C3.96267247 4.61930837 1.5800298 5.13999007 -1 6 C-1 5.34 -1 4.68 -1 4 C-1.66 3.67 -2.32 3.34 -3 3 C-1.875 1.4375 -1.875 1.4375 0 0 Z " fill="#6E35BC" transform="translate(225,344)"/>
<path d="M0 0 C0.33 0.66 0.66 1.32 1 2 C2.32 1.67 3.64 1.34 5 1 C5 1.66 5 2.32 5 3 C-0.41176471 7 -0.41176471 7 -3 7 C-3 7.66 -3 8.32 -3 9 C-3.99 9.33 -4.98 9.66 -6 10 C-6.66 9.34 -7.32 8.68 -8 8 C-5.36 5.36 -2.72 2.72 0 0 Z " fill="#946DD0" transform="translate(418,228)"/>
<path d="M0 0 C1.23556641 0.01740234 1.23556641 0.01740234 2.49609375 0.03515625 C3.32238281 0.04417969 4.14867187 0.05320313 5 0.0625 C5.63808594 0.07410156 6.27617187 0.08570313 6.93359375 0.09765625 C6.00546875 0.49984375 6.00546875 0.49984375 5.05859375 0.91015625 C2.63407045 2.05322473 2.63407045 2.05322473 0.93359375 5.09765625 C-0.94140625 5.64453125 -0.94140625 5.64453125 -3.06640625 5.84765625 C-4.11828125 5.96367188 -4.11828125 5.96367188 -5.19140625 6.08203125 C-7.06640625 6.09765625 -7.06640625 6.09765625 -9.06640625 5.09765625 C-9.06640625 4.43765625 -9.06640625 3.77765625 -9.06640625 3.09765625 C-7.41640625 3.09765625 -5.76640625 3.09765625 -4.06640625 3.09765625 C-3.73640625 2.43765625 -3.40640625 1.77765625 -3.06640625 1.09765625 C-2.06640625 0.09765625 -2.06640625 0.09765625 0 0 Z " fill="#8C63D7" transform="translate(375.06640625,49.90234375)"/>
<path d="M0 0 C1.32 0.99 2.64 1.98 4 3 C4 2.34 4 1.68 4 1 C4.66 1.33 5.32 1.66 6 2 C3.25 6.875 3.25 6.875 1 8 C1 8.66 1 9.32 1 10 C-0.32 10.33 -1.64 10.66 -3 11 C-3 8 -3 8 -1 5 C-0.61500109 3.34450469 -0.27206865 1.6777567 0 0 Z " fill="#7639C7" transform="translate(163,176)"/>
<path d="M0 0 C0.99 0.495 0.99 0.495 2 1 C2.75 3.375 2.75 3.375 3 6 C2.34 6.99 1.68 7.98 1 9 C1.66 9.33 2.32 9.66 3 10 C3.625 12.5625 3.625 12.5625 4 15 C2.68 15.99 1.36 16.98 0 18 C0 12.06 0 6.12 0 0 Z " fill="#925EDA" transform="translate(475,132)"/>
<path d="M0 0 C0.99 0.33 1.98 0.66 3 1 C3.66 0.67 4.32 0.34 5 0 C5.66 0.66 6.32 1.32 7 2 C3.7 5.3 0.4 8.6 -3 12 C-3.33 11.01 -3.66 10.02 -4 9 C-3.67 8.34 -3.34 7.68 -3 7 C-2.34 7 -1.68 7 -1 7 C-1 6.34 -1 5.68 -1 5 C-0.34 5 0.32 5 1 5 C0.67 3.35 0.34 1.7 0 0 Z " fill="#9568D2" transform="translate(448,232)"/>
<path d="M0 0 C0.66 0 1.32 0 2 0 C0.59257936 3.51855159 -0.66466523 4.38612834 -4 6 C-4.33 6.99 -4.66 7.98 -5 9 C-7.5625 10.6875 -7.5625 10.6875 -10 12 C-10.33 11.01 -10.66 10.02 -11 9 C-10.01 8.67 -9.02 8.34 -8 8 C-8 7.34 -8 6.68 -8 6 C-7.34 5.34 -6.68 4.68 -6 4 C-5.01 4 -4.02 4 -3 4 C-3 3.34 -3 2.68 -3 2 C-2.01 2 -1.02 2 0 2 C0 1.34 0 0.68 0 0 Z " fill="#8A5FC3" transform="translate(360,325)"/>
<path d="M0 0 C0.721875 0.103125 1.44375 0.20625 2.1875 0.3125 C1.8575 1.3025 1.5275 2.2925 1.1875 3.3125 C0.5275 3.3125 -0.1325 3.3125 -0.8125 3.3125 C-1.1425 4.3025 -1.4725 5.2925 -1.8125 6.3125 C-3.43582967 7.69826923 -5.09974465 9.03891268 -6.8125 10.3125 C-7.625 8.125 -7.625 8.125 -7.8125 5.3125 C-5.40318505 2.1237008 -4.05050045 0.45005561 0 0 Z " fill="#945ACD" transform="translate(300.8125,287.6875)"/>
<path d="M0 0 C0.66 0 1.32 0 2 0 C4.58926331 2.58926331 4.37398043 4.02705279 4.625 7.625 C4.69976562 8.62789063 4.77453125 9.63078125 4.8515625 10.6640625 C4.92503906 11.82035156 4.92503906 11.82035156 5 13 C4.34 13 3.68 13 3 13 C1.12396022 10.18594033 0.50907198 8.59075334 -0.1875 5.375 C-0.36667969 4.57835937 -0.54585938 3.78171875 -0.73046875 2.9609375 C-0.81941406 2.31382812 -0.90835938 1.66671875 -1 1 C-0.67 0.67 -0.34 0.34 0 0 Z " fill="#692FAF" transform="translate(122,267)"/>
<path d="M0 0 C1.20220203 3.53094302 0.79532349 6.12898982 0.0625 9.75 C-0.13214844 10.73484375 -0.32679687 11.7196875 -0.52734375 12.734375 C-0.68332031 13.48203125 -0.83929688 14.2296875 -1 15 C-0.34 15 0.32 15 1 15 C1 15.66 1 16.32 1 17 C0.01 17 -0.98 17 -2 17 C-2.33 17.66 -2.66 18.32 -3 19 C-3.33 17.02 -3.66 15.04 -4 13 C-3.67 13 -3.34 13 -3 13 C-2.67 9.37 -2.34 5.74 -2 2 C-1.34 2 -0.68 2 0 2 C0 1.34 0 0.68 0 0 Z " fill="#6E38BA" transform="translate(101,229)"/>
<path d="M0 0 C0.625 1.8125 0.625 1.8125 1 4 C-1 7 -1 7 -4.125 7.6875 C-5.07375 7.790625 -6.0225 7.89375 -7 8 C-7.33 9.32 -7.66 10.64 -8 12 C-8.99 11.67 -9.98 11.34 -11 11 C-10.2575 10.278125 -9.515 9.55625 -8.75 8.8125 C-5.99867822 6.09431767 -5.99867822 6.09431767 -3.8125 3.25 C-2 1 -2 1 0 0 Z " fill="#8765BF" transform="translate(174,135)"/>
<path d="M0 0 C0 0.66 0 1.32 0 2 C-5.89738492 4.29342747 -10.66606918 5.34548714 -17 5 C-14.17765359 2.34367397 -12.75408124 1.04435772 -8.8125 0.8125 C-7.4203125 0.9053125 -7.4203125 0.9053125 -6 1 C-4 0 -4 0 0 0 Z " fill="#9465D5" transform="translate(391,73)"/>
<path d="M0 0 C4.33494006 5.34642608 6.26538081 7.96740854 6 15 C5.62875 14.1028125 5.62875 14.1028125 5.25 13.1875 C4.15807188 10.85614346 4.15807188 10.85614346 1.875 9.75 C0 8 0 8 -0.2578125 6.03515625 C-0.25073503 4.02161522 -0.13175333 2.00923832 0 0 Z " fill="#7F59C0" transform="translate(227,286)"/>
<path d="M0 0 C0.99 0.33 1.98 0.66 3 1 C2.83628906 1.77601563 2.67257813 2.55203125 2.50390625 3.3515625 C1.855088 8.0492078 1.89359613 12.64013661 1.9375 17.375 C1.94201172 18.30183594 1.94652344 19.22867187 1.95117188 20.18359375 C1.96288426 22.45579709 1.97928628 24.72786388 2 27 C1.34 27 0.68 27 0 27 C0 18.09 0 9.18 0 0 Z " fill="#7038BF" transform="translate(194,246)"/>
<path d="M0 0 C0.99 0 1.98 0 3 0 C1.19389405 6.34339651 -1.25627734 11.56938255 -5 17 C-5.33 15.68 -5.66 14.36 -6 13 C-5.34 13 -4.68 13 -4 13 C-3.896875 12.34 -3.79375 11.68 -3.6875 11 C-2.80786436 7.16158991 -1.43030104 3.66903309 0 0 Z " fill="#986BCD" transform="translate(349,228)"/>
<path d="M0 0 C1.32 0.66 2.64 1.32 4 2 C3.67 3.65 3.34 5.3 3 7 C2.34 7 1.68 7 1 7 C1 8.65 1 10.3 1 12 C0.34 12 -0.32 12 -1 12 C-2 9 -2 9 -1 6 C-1.185625 5.319375 -1.37125 4.63875 -1.5625 3.9375 C-1.706875 3.298125 -1.85125 2.65875 -2 2 C-1.34 1.34 -0.68 0.68 0 0 Z " fill="#7239BD" transform="translate(226,216)"/>
<path d="M0 0 C0.375 2.6875 0.375 2.6875 0 6 C-1.823983 8.06398076 -3.72763839 9.39041053 -6 11 C-5.814375 10.05125 -5.62875 9.1025 -5.4375 8.125 C-4.71313368 5.10131207 -4.71313368 5.10131207 -6 3 C-4.60722783 0.21445565 -3.01148006 0 0 0 Z " fill="#7137B7" transform="translate(134,217)"/>
<path d="M0 0 C0.66 0 1.32 0 2 0 C1.52797514 4.24822374 -0.96655518 6.19989709 -4 9 C-6 7 -6 7 -6.125 4.375 C-6.08375 3.59125 -6.0425 2.8075 -6 2 C-4.7934375 1.7834375 -4.7934375 1.7834375 -3.5625 1.5625 C-1.07896294 1.25864751 -1.07896294 1.25864751 0 0 Z " fill="#9660D5" transform="translate(478,205)"/>
<path d="M0 0 C0 0.66 0 1.32 0 2 C-7.80363479 3.14500285 -15.16992004 2.79773542 -23 2 C-23 1.67 -23 1.34 -23 1 C-15.3164908 0.38794237 -7.70947565 -0.13292199 0 0 Z " fill="#643EB9" transform="translate(206,327)"/>
<path d="M0 0 C0.99 0 1.98 0 3 0 C1.9789114 3.67591895 1.08564783 4.9339798 -2 7.3125 C-5 9 -5 9 -7 9 C-7.33 8.01 -7.66 7.02 -8 6 C-6.20963542 5.0234375 -4.41927083 4.046875 -2.62890625 3.0703125 C-0.83381685 2.08589976 -0.83381685 2.08589976 0 0 Z " fill="#8457BE" transform="translate(288,299)"/>
<path d="M0 0 C0.33 0 0.66 0 1 0 C1 2.97 1 5.94 1 9 C0.01 9.33 -0.98 9.66 -2 10 C-3.21869929 12.50447516 -3.21869929 12.50447516 -4 15 C-5.11346788 12.19966161 -5.03510273 11.09856297 -4.00390625 8.203125 C-3.52824219 7.22859375 -3.05257812 6.2540625 -2.5625 5.25 C-2.08941406 4.26515625 -1.61632812 3.2803125 -1.12890625 2.265625 C-0.75636719 1.51796875 -0.38382813 0.7703125 0 0 Z " fill="#916CC4" transform="translate(202,211)"/>
<path d="M0 0 C0.33 0 0.66 0 1 0 C1.08153933 1.58246707 1.13943557 3.16616273 1.1875 4.75 C1.22230469 5.63171875 1.25710938 6.5134375 1.29296875 7.421875 C0.94355103 10.49675097 0.17867997 11.82639854 -2 14 C-2.99 14 -3.98 14 -5 14 C-3.45730076 9.27934033 -1.92205381 4.58335908 0 0 Z " fill="#9871C4" transform="translate(328,207)"/>
<path d="M0 0 C0.66 0.99 1.32 1.98 2 3 C1.67 3.66 1.34 4.32 1 5 C1.226875 5.78375 1.45375 6.5675 1.6875 7.375 C1.790625 8.24125 1.89375 9.1075 2 10 C0.0625 12.3125 0.0625 12.3125 -2 14 C-2.05410687 12.22950311 -2.09284119 10.45853151 -2.125 8.6875 C-2.14820313 7.70136719 -2.17140625 6.71523437 -2.1953125 5.69921875 C-2 3 -2 3 0 0 Z " fill="#864DD2" transform="translate(333,174)"/>
<path d="M0 0 C0.66 0.99 1.32 1.98 2 3 C1.01 4.485 1.01 4.485 0 6 C-0.66 6 -1.32 6 -2 6 C-2 6.66 -2 7.32 -2 8 C-3.96466413 9.06775224 -5.96855359 10.06553465 -8 11 C-8.66 10.67 -9.32 10.34 -10 10 C-6.7 6.7 -3.4 3.4 0 0 Z " fill="#8865C1" transform="translate(157,152)"/>
<path d="M0 0 C5.38323353 6.49700599 5.38323353 6.49700599 7 10 C6.1875 12.3125 6.1875 12.3125 5 14 C4.54625 13.236875 4.0925 12.47375 3.625 11.6875 C2.46175508 9.76367186 1.2470585 7.87058776 0 6 C-0.125 2.8125 -0.125 2.8125 0 0 Z " fill="#AD8DDF" transform="translate(485,86)"/>
<path d="M0 0 C1.32 0 2.64 0 4 0 C4 0.66 4 1.32 4 2 C5.65 2.33 7.3 2.66 9 3 C9 3.66 9 4.32 9 5 C8.278125 4.95875 7.55625 4.9175 6.8125 4.875 C3.79270631 5.00921305 1.73064271 5.75170619 -1 7 C-1.04254356 5.00045254 -1.04080783 2.99958364 -1 1 C-0.67 0.67 -0.34 0.34 0 0 Z " fill="#7A4BBD" transform="translate(237,340)"/>
<path d="M0 0 C0.66666667 2.66666667 1.33333333 5.33333333 2 8 C0.35 8 -1.3 8 -3 8 C-3.66 6.35 -4.32 4.7 -5 3 C-3.35 2.01 -1.7 1.02 0 0 Z " fill="#6B3AC0" transform="translate(120,312)"/>
<path d="M0 0 C3.63 0.66 7.26 1.32 11 2 C11 2.99 11 3.98 11 5 C7.25 6.125 7.25 6.125 5 5 C5 4.34 5 3.68 5 3 C3.35 2.67 1.7 2.34 0 2 C0 1.34 0 0.68 0 0 Z " fill="#662CC9" transform="translate(140,336)"/>
<path d="M0 0 C1.31354934 3.94064801 0.30975532 5.3016095 -1.3125 9.0625 C-1.98732422 10.65771484 -1.98732422 10.65771484 -2.67578125 12.28515625 C-4 15 -4 15 -6 17 C-5.67 14.03 -5.34 11.06 -5 8 C-4.34 8 -3.68 8 -3 8 C-2.87625 6.865625 -2.7525 5.73125 -2.625 4.5625 C-2.41875 3.386875 -2.2125 2.21125 -2 1 C-1.34 0.67 -0.68 0.34 0 0 Z " fill="#A67DD2" transform="translate(498,172)"/>
<path d="M0 0 C0.66 0 1.32 0 2 0 C2.12117187 0.77085937 2.24234375 1.54171875 2.3671875 2.3359375 C2.53476563 3.33882813 2.70234375 4.34171875 2.875 5.375 C3.03742188 6.37273437 3.19984375 7.37046875 3.3671875 8.3984375 C3.7958802 11.1425115 3.7958802 11.1425115 6 13 C6.125 15.625 6.125 15.625 6 18 C5.67 17.34 5.34 16.68 5 16 C4.01 16 3.02 16 2 16 C1.34 10.72 0.68 5.44 0 0 Z " fill="#713DB0" transform="translate(218,263)"/>
<path d="M0 0 C0.99 0.33 1.98 0.66 3 1 C2.09232898 2.44319692 1.17343894 3.87934106 0.25 5.3125 C-0.26046875 6.11300781 -0.7709375 6.91351563 -1.296875 7.73828125 C-3.00277761 10.00368861 -4.65808145 11.42684167 -7 13 C-7.66 12.67 -8.32 12.34 -9 12 C-8.67 11.01 -8.34 10.02 -8 9 C-7.01 8.67 -6.02 8.34 -5 8 C-4.34 7.01 -3.68 6.02 -3 5 C-2.34 5 -1.68 5 -1 5 C-0.67 3.35 -0.34 1.7 0 0 Z " fill="#8355CC" transform="translate(410,237)"/>
<path d="M0 0 C1.32 0.66 2.64 1.32 4 2 C3.2575 2.680625 2.515 3.36125 1.75 4.0625 C-1.24381953 7.03073132 -3.03437285 10.28714872 -5 14 C-5.33 12.68 -5.66 11.36 -6 10 C-5.34 10 -4.68 10 -4 10 C-4 8.35 -4 6.7 -4 5 C-3.34 5 -2.68 5 -2 5 C-1.855625 4.360625 -1.71125 3.72125 -1.5625 3.0625 C-1 1 -1 1 0 0 Z " fill="#9268C5" transform="translate(233,213)"/>
<path d="M0 0 C0.66 0.33 1.32 0.66 2 1 C2.4140625 3.06640625 2.4140625 3.06640625 2.625 5.5625 C2.69976562 6.38878906 2.77453125 7.21507812 2.8515625 8.06640625 C2.92503906 9.02353516 2.92503906 9.02353516 3 10 C2.01 10 1.02 10 0 10 C0 11.98 0 13.96 0 16 C-0.33 16 -0.66 16 -1 16 C-1.09688221 10.55306686 -1.12862175 5.36095333 0 0 Z " fill="#8350C3" transform="translate(330,197)"/>
<path d="M0 0 C0.33 0.99 0.66 1.98 1 3 C0.01 4.485 0.01 4.485 -1 6 C-1.68177416 7.32567199 -2.35191436 8.65753688 -3 10 C-4.65 10 -6.3 10 -8 10 C-6.76044505 6.28133515 -4.81445146 4.67716114 -2 2 C-1.34 1.34 -0.68 0.68 0 0 Z " fill="#A283D7" transform="translate(316,89)"/>
<path d="M0 0 C1.5625 1.75 1.5625 1.75 3 4 C2.6875 6.25 2.6875 6.25 2 8 C2.66 8 3.32 8 4 8 C4.33 9.32 4.66 10.64 5 12 C4.34 11.67 3.68 11.34 3 11 C3 10.34 3 9.68 3 9 C2.401875 8.773125 1.80375 8.54625 1.1875 8.3125 C-1.56351888 6.66188867 -2.52484637 4.8027919 -4 2 C-2.68 2 -1.36 2 0 2 C0 1.34 0 0.68 0 0 Z " fill="#7B57C6" transform="translate(122,318)"/>
<path d="M0 0 C0 0.99 0 1.98 0 3 C3.3 3.66 6.6 4.32 10 5 C10 5.33 10 5.66 10 6 C3.75962747 6.4992298 -0.01009196 6.24142184 -5 2 C-5.33 1.34 -5.66 0.68 -6 0 C-3.50907189 -1.24546405 -2.58919267 -0.7767578 0 0 Z " fill="#906BC2" transform="translate(270,304)"/>
<path d="M0 0 C-0.56149357 3.25666272 -1.37229986 4.95623323 -4 7 C-6.1875 7.6875 -6.1875 7.6875 -8 8 C-7.32253522 3.25774652 -4.9532836 0 0 0 Z " fill="#8B65CB" transform="translate(350,299)"/>
<path d="M0 0 C0.33 1.32 0.66 2.64 1 4 C0.0409375 4.37125 0.0409375 4.37125 -0.9375 4.75 C-3.18741541 5.81562433 -3.18741541 5.81562433 -3.75 8.125 C-3.8325 8.74375 -3.915 9.3625 -4 10 C-5.65 10 -7.3 10 -9 10 C-7.61811547 6.78956118 -6.07578097 4.95063635 -3.375 2.75 C-2.74335938 2.22921875 -2.11171875 1.7084375 -1.4609375 1.171875 C-0.73777344 0.59179688 -0.73777344 0.59179688 0 0 Z " fill="#8A69C1" transform="translate(146,163)"/>
<path d="M0 0 C3.53586014 3.17320782 5.58578031 5.16743695 6 10 C3.625 9.4375 3.625 9.4375 1 8 C-0.3125 4.375 -0.3125 4.375 -1 1 C-0.67 0.67 -0.34 0.34 0 0 Z " fill="#784AB4" transform="translate(130,287)"/>
<path d="M0 0 C1 3 1 3 0 6 C-2.0625 6.6875 -2.0625 6.6875 -4 7 C-4 7.66 -4 8.32 -4 9 C-5.65 9.33 -7.3 9.66 -9 10 C-8.06409496 8.8944811 -7.12620142 7.79064547 -6.1875 6.6875 C-5.66542969 6.07261719 -5.14335937 5.45773437 -4.60546875 4.82421875 C-3.12827531 3.14575321 -1.59960869 1.56117966 0 0 Z " fill="#9A79CE" transform="translate(381,265)"/>
<path d="M0 0 C-0.66 0 -1.32 0 -2 0 C-2.33 0.99 -2.66 1.98 -3 3 C-4.9375 5.1875 -4.9375 5.1875 -7 7 C-7.66 7 -8.32 7 -9 7 C-9.3125 4.6875 -9.3125 4.6875 -9 2 C-5.85636787 -0.61969344 -3.87356388 -1.57811862 0 0 Z " fill="#9567CC" transform="translate(325,268)"/>
<path d="M0 0 C0.66 0.66 1.32 1.32 2 2 C1.6875 5.1875 1.6875 5.1875 1 9 C0.7834375 10.918125 0.7834375 10.918125 0.5625 12.875 C0.376875 13.90625 0.19125 14.9375 0 16 C-0.66 16.33 -1.32 16.66 -2 17 C-2.25706972 11.08739655 -1.2982126 5.76081841 0 0 Z " fill="#8D65BF" transform="translate(194,232)"/>
<path d="M0 0 C4.8333472 -0.08333357 9.23692563 0.04738513 14 1 C14 1.66 14 2.32 14 3 C8.97703996 4.13016601 5.02125926 3.77916092 0 3 C0 2.01 0 1.02 0 0 Z " fill="#A476DD" transform="translate(263,119)"/>
<path d="M0 0 C1.98 0 3.96 0 6 0 C5.67 1.98 5.34 3.96 5 6 C3.35 5.67 1.7 5.34 0 5 C0 3.35 0 1.7 0 0 Z " fill="#6D3CC0" transform="translate(255,344)"/>
<path d="M0 0 C3.07373463 0.62871845 5.33257408 1.12425629 7.2890625 3.69140625 C8.26200476 5.42380343 9.13804683 7.20978957 10 9 C5.57238086 7.60846256 3.0443745 5.47928514 0 2 C0 1.34 0 0.68 0 0 Z " fill="#7B53BB" transform="translate(237,214)"/>
<path d="M0 0 C0.66 0.33 1.32 0.66 2 1 C2 4 2 4 -0.3125 6.6875 C-3 9 -3 9 -6 9 C-6 8.01 -6 7.02 -6 6 C-4.35 5.67 -2.7 5.34 -1 5 C-0.67 3.35 -0.34 1.7 0 0 Z " fill="#8250C3" transform="translate(158,188)"/>
<path d="M0 0 C5.77807024 -0.2358396 10.51324804 0.13216954 16 2 C12.25 3.125 12.25 3.125 10 2 C9.67 2.66 9.34 3.32 9 4 C6.03 3.01 3.06 2.02 0 1 C0 0.67 0 0.34 0 0 Z " fill="#AA8BDE" transform="translate(415,46)"/>
<path d="M0 0 C3 1 3 1 4 3 C4.35169068 4.32860925 4.68770276 5.66158328 5 7 C3.0625 7.5625 3.0625 7.5625 1 8 C0 7 0 7 -0.0625 3.4375 C-0.041875 2.303125 -0.02125 1.16875 0 0 Z " fill="#6E39BD" transform="translate(202,294)"/>
<path d="M0 0 C2.91517292 1.07401108 4.77810176 1.77810176 7 4 C7 5.32 7 6.64 7 8 C7.66 8.33 8.32 8.66 9 9 C8.34 9.66 7.68 10.32 7 11 C6.67 9.68 6.34 8.36 6 7 C5.34 7 4.68 7 4 7 C2.02 3.535 2.02 3.535 0 0 Z " fill="#AF89DB" transform="translate(312,145)"/>
<path d="M0 0 C0.66 0.99 1.32 1.98 2 3 C1.030625 3.598125 0.06125 4.19625 -0.9375 4.8125 C-4.23052042 6.71127509 -4.23052042 6.71127509 -5 10 C-6.32 9.67 -7.64 9.34 -9 9 C-6.03 6.03 -3.06 3.06 0 0 Z " fill="#8564BC" transform="translate(190,119)"/>
<path d="M0 0 C0.66 0.33 1.32 0.66 2 1 C1.690625 1.5775 1.38125 2.155 1.0625 2.75 C0.07416636 4.84294184 -0.5168613 6.74535275 -1 9 C-3.475 8.01 -3.475 8.01 -6 7 C-4.6875 4.0625 -4.6875 4.0625 -3 1 C-2.01 0.67 -1.02 0.34 0 0 Z " fill="#8857D8" transform="translate(320,88)"/>
<path d="M0 0 C0.66 0.33 1.32 0.66 2 1 C2 1.99 2 2.98 2 4 C-3.2734375 7.22265625 -3.2734375 7.22265625 -5 8 C-5.66 7.67 -6.32 7.34 -7 7 C-6.67 6.01 -6.34 5.02 -6 4 C-4.66923011 3.65657551 -3.33568021 3.32380126 -2 3 C-1.34 2.01 -0.68 1.02 0 0 Z " fill="#A279DF" transform="translate(364,82)"/>
<path d="M0 0 C0.66 0.33 1.32 0.66 2 1 C1.67 2.32 1.34 3.64 1 5 C0.21625 5.144375 -0.5675 5.28875 -1.375 5.4375 C-3.96421018 5.87798925 -3.96421018 5.87798925 -6 7 C-6.66 6.34 -7.32 5.68 -8 5 C-7.67 4.34 -7.34 3.68 -7 3 C-5.35 3 -3.7 3 -2 3 C-2 2.34 -2 1.68 -2 1 C-1.34 0.67 -0.68 0.34 0 0 Z " fill="#8B5DDB" transform="translate(359,57)"/>
<path d="M0 0 C0.66 0.99 1.32 1.98 2 3 C1.01 4.485 1.01 4.485 0 6 C0.66 6 1.32 6 2 6 C2 6.66 2 7.32 2 8 C1.34 8 0.68 8 0 8 C-0.33 8.66 -0.66 9.32 -1 10 C-1.66 9.67 -2.32 9.34 -3 9 C-3.26218749 5.85375007 -3.24754367 4.38162983 -1.5 1.6875 C-1.005 1.130625 -0.51 0.57375 0 0 Z " fill="#7037C0" transform="translate(214,307)"/>
<path d="M0 0 C-1.66666667 3.33333333 -3.33333333 6.66666667 -5 10 C-5.66 10 -6.32 10 -7 10 C-7.3327958 6.33924624 -7.46170299 4.60499012 -5.1875 1.625 C-3 0 -3 0 0 0 Z " fill="#9157DB" transform="translate(487,194)"/>
<path d="M0 0 C3.76607955 1.25535985 4.26441793 2.52883585 6 6 C6 9 6 9 4 12 C3.3291288 10.3767313 2.66342971 8.75132422 2 7.125 C1.62875 6.22007812 1.2575 5.31515625 0.875 4.3828125 C0 2 0 2 0 0 Z " fill="#9D74D1" transform="translate(323,161)"/>
<path d="M0 0 C-1.91315119 2.57619276 -2.9016314 2.98395232 -6.13671875 3.51171875 C-7.30847656 3.56972656 -8.48023438 3.62773438 -9.6875 3.6875 C-10.86699219 3.75324219 -12.04648438 3.81898437 -13.26171875 3.88671875 C-14.61716797 3.94279297 -14.61716797 3.94279297 -16 4 C-11.17353323 0.78235549 -5.80178176 -0.36261136 0 0 Z " fill="#987CD4" transform="translate(242,94)"/>
<path d="M0 0 C0.70125 0.144375 1.4025 0.28875 2.125 0.4375 C1.795 1.0975 1.465 1.7575 1.125 2.4375 C0.135 2.4375 -0.855 2.4375 -1.875 2.4375 C-2.205 3.7575 -2.535 5.0775 -2.875 6.4375 C-4.855 6.7675 -6.835 7.0975 -8.875 7.4375 C-3.7809081 0.57535558 -3.7809081 0.57535558 0 0 Z " fill="#9F75D5" transform="translate(325.875,81.5625)"/>
<path d="M0 0 C0.33 1.32 0.66 2.64 1 4 C-2.63 3.01 -6.26 2.02 -10 1 C-6.1496895 -1.56687367 -4.41430237 -0.83288724 0 0 Z " fill="#815BC3" transform="translate(168,349)"/>
<path d="M0 0 C3.78205128 4.53846154 3.78205128 4.53846154 5.0625 7.25 C5.93497944 9.35994637 5.93497944 9.35994637 9 10 C7.68 10.33 6.36 10.66 5 11 C2 7.375 2 7.375 2 4 C1.01 3.67 0.02 3.34 -1 3 C-0.67 2.01 -0.34 1.02 0 0 Z " fill="#8B66C8" transform="translate(136,295)"/>
<path d="M0 0 C0.33 0 0.66 0 1 0 C1.4726477 8.19256018 1.4726477 8.19256018 -0.5 11.5625 C-0.995 12.036875 -1.49 12.51125 -2 13 C-2 2 -2 2 0 0 Z " fill="#7842BE" transform="translate(264,189)"/>
<path d="M0 0 C0.33 0 0.66 0 1 0 C0.40380045 4.86896303 -0.56976822 9.32790951 -2 14 C-3.125 12.4375 -3.125 12.4375 -4 10 C-3.17118585 6.06313281 -2.23639141 3.35458711 0 0 Z " fill="#7940C3" transform="translate(268,174)"/>
<path d="M0 0 C4.95 0.99 4.95 0.99 10 2 C10.33 2.99 10.66 3.98 11 5 C9.741875 4.87625 8.48375 4.7525 7.1875 4.625 C6.12595703 4.52058594 6.12595703 4.52058594 5.04296875 4.4140625 C3 4 3 4 0 2 C0 1.34 0 0.68 0 0 Z " fill="#8054DA" transform="translate(288,99)"/>
<path d="M0 0 C-2.48952921 2.66735273 -4.63408134 4.55746343 -8 6 C-8.33 4.68 -8.66 3.36 -9 2 C-5.5647952 -0.29013653 -4.014669 -0.17842973 0 0 Z " fill="#8D5DCB" transform="translate(349,337)"/>
<path d="M0 0 C-0.33 0.99 -0.66 1.98 -1 3 C-4.67566856 4.61729417 -9.07239675 4.06546005 -13 4 C-8.93662608 1.29108405 -4.89951609 0 0 0 Z " fill="#9880D1" transform="translate(317,322)"/>
<path d="M0 0 C-1.375 1.5 -1.375 1.5 -3 3 C-3.66 3 -4.32 3 -5 3 C-4.67 4.65 -4.34 6.3 -4 8 C-4.99 7.34 -5.98 6.68 -7 6 C-7.1875 2.875 -7.1875 2.875 -7 0 C-4.3333581 -1.33332095 -2.83319697 -0.67102033 0 0 Z " fill="#793EC7" transform="translate(298,290)"/>
<path d="M0 0 C1.66842534 0.32441604 3.33480481 0.65939189 5 1 C6.11375 1.185625 6.11375 1.185625 7.25 1.375 C8.11625 1.684375 8.11625 1.684375 9 2 C9.33 2.99 9.66 3.98 10 5 C8.25 5.6875 8.25 5.6875 6 6 C3.75 4.6875 3.75 4.6875 2 3 C2 2.34 2 1.68 2 1 C1.34 0.67 0.68 0.34 0 0 Z " fill="#A984D9" transform="translate(297,132)"/>
<path d="M0 0 C0.66 0.33 1.32 0.66 2 1 C2 1.99 2 2.98 2 4 C3.65 4.33 5.3 4.66 7 5 C6.34 6.32 5.68 7.64 5 9 C2.35247996 6.42215154 0.05567935 4.08351902 -2 1 C-1.34 0.67 -0.68 0.34 0 0 Z " fill="#B18CE8" transform="translate(455,94)"/>
<path d="M0 0 C1.258125 0.12375 2.51625 0.2475 3.8125 0.375 C4.87404297 0.47941406 4.87404297 0.47941406 5.95703125 0.5859375 C8 1 8 1 11 3 C10.67 3.33 10.34 3.66 10 4 C4.20847902 3.63228438 4.20847902 3.63228438 2 3 C1.34 2.01 0.68 1.02 0 0 Z " fill="#8A6CD4" transform="translate(288,97)"/>
<path d="M0 0 C0.5625 1.9375 0.5625 1.9375 1 4 C0 5 0 5 -3.5625 5.0625 C-4.696875 5.041875 -5.83125 5.02125 -7 5 C-4.53846154 1.18461538 -4.53846154 1.18461538 -1.8125 0.25 C-1.214375 0.1675 -0.61625 0.085 0 0 Z " fill="#9865E7" transform="translate(431,72)"/>
<path d="M0 0 C1.09570312 0.00902344 2.19140625 0.01804687 3.3203125 0.02734375 C4.16335937 0.03894531 5.00640625 0.05054688 5.875 0.0625 C3.28573669 2.65176331 1.84794721 2.43648043 -1.75 2.6875 C-2.75289062 2.76226562 -3.75578125 2.83703125 -4.7890625 2.9140625 C-5.94535156 2.98753906 -5.94535156 2.98753906 -7.125 3.0625 C-7.455 2.4025 -7.785 1.7425 -8.125 1.0625 C-5.36047967 -0.31976016 -3.0788637 -0.03275387 0 0 Z " fill="#6D38B2" transform="translate(215.125,350.9375)"/>
<path d="M0 0 C0.33 0 0.66 0 1 0 C0.85816304 1.75032844 0.71136571 3.50025534 0.5625 5.25 C0.48128906 6.22453125 0.40007812 7.1990625 0.31640625 8.203125 C0.04925416 10.56461753 -0.35371968 12.71901065 -1 15 C-3.54464286 7.36607143 -3.54464286 7.36607143 -1.625 3 C-1.08875 2.01 -0.5525 1.02 0 0 Z " fill="#9878C8" transform="translate(263,287)"/>
<path d="M0 0 C1 2 1 2 0.4375 3.875 C-1.52809544 6.78066282 -4.03322518 8.19413707 -7 10 C-7.66 9.67 -8.32 9.34 -9 9 C-6.03 6.03 -3.06 3.06 0 0 Z " fill="#A689D1" transform="translate(278,271)"/>
<path d="M0 0 C0.33 0.66 0.66 1.32 1 2 C-0.0625 5 -0.0625 5 -2 8 C-5.1875 9.375 -5.1875 9.375 -8 10 C-7.59007812 9.52949219 -7.18015625 9.05898437 -6.7578125 8.57421875 C-6.21898437 7.95160156 -5.68015625 7.32898438 -5.125 6.6875 C-4.59132813 6.07261719 -4.05765625 5.45773438 -3.5078125 4.82421875 C-1.8359553 2.86501788 -1.8359553 2.86501788 0 0 Z " fill="#A085CE" transform="translate(310,238)"/>
<path d="M0 0 C0 4.1041911 -1.45843064 5.84021107 -4 9 C-6.75 9.875 -6.75 9.875 -9 10 C-9 9.34 -9 8.68 -9 8 C-7.28515625 6.30859375 -7.28515625 6.30859375 -5.0625 4.4375 C-3.96615234 3.50744141 -3.96615234 3.50744141 -2.84765625 2.55859375 C-2.23792969 2.04425781 -1.62820313 1.52992188 -1 1 C-0.67 0.67 -0.34 0.34 0 0 Z " fill="#AA8DD5" transform="translate(443,203)"/>
<path d="M0 0 C0 1.65 0 3.3 0 5 C-1.65 5.66 -3.3 6.32 -5 7 C-5.1875 4.625 -5.1875 4.625 -5 2 C-2 0 -2 0 0 0 Z " fill="#693AB5" transform="translate(119,196)"/>
<path d="M0 0 C0.33 0 0.66 0 1 0 C1.07654536 4.51617599 1.10228696 8.59085217 0 13 C-0.99 13 -1.98 13 -3 13 C-2.01 8.71 -1.02 4.42 0 0 Z " fill="#A585D1" transform="translate(472,155)"/>
<path d="M0 0 C-0.38597015 2.79828356 -0.80136573 3.8205884 -2.9375 5.75 C-5 7 -5 7 -7 7 C-6.22006468 2.47637516 -4.81844319 0 0 0 Z " fill="#7652B4" transform="translate(165,147)"/>
<path d="M0 0 C2.875 -0.125 2.875 -0.125 6 0 C6.66 0.66 7.32 1.32 8 2 C6.35 3.32 4.7 4.64 3 6 C3 5.34 3 4.68 3 4 C2.34 4 1.68 4 1 4 C0.67 2.68 0.34 1.36 0 0 Z " fill="#915CCA" transform="translate(193,150)"/>
<path d="M0 0 C2.6875 0.875 2.6875 0.875 5 2 C5 2.66 5 3.32 5 4 C5.99 4.33 6.98 4.66 8 5 C4.25 6.125 4.25 6.125 2 5 C2 4.34 2 3.68 2 3 C0.35 2.67 -1.3 2.34 -3 2 C-2.01 1.34 -1.02 0.68 0 0 Z " fill="#A078D6" transform="translate(291,126)"/>
<path d="M0 0 C0 3 0 3 -2 6 C-5.625 7.1875 -5.625 7.1875 -9 8 C-6.14723863 5.06799526 -3.34920216 2.35684596 0 0 Z " fill="#906CC5" transform="translate(200,111)"/>
<path d="M0 0 C0.66 0 1.32 0 2 0 C2.66 2.64 3.32 5.28 4 8 C2.35 8.33 0.7 8.66 -1 9 C-1.33 8.34 -1.66 7.68 -2 7 C-1.01 6.01 -0.02 5.02 1 4 C0.34 4 -0.32 4 -1 4 C-0.67 2.68 -0.34 1.36 0 0 Z " fill="#9668E1" transform="translate(483,86)"/>
<path d="M0 0 C1.32 0.33 2.64 0.66 4 1 C1.69 3.31 -0.62 5.62 -3 8 C-3.66 7.01 -4.32 6.02 -5 5 C-4.34 5 -3.68 5 -3 5 C-3 4.34 -3 3.68 -3 3 C-1.75 1.3125 -1.75 1.3125 0 0 Z " fill="#9164CD" transform="translate(418,266)"/>
<path d="M0 0 C0.99 0.495 0.99 0.495 2 1 C2.6328125 3.50390625 2.6328125 3.50390625 3.125 6.5625 C3.29257813 7.57441406 3.46015625 8.58632813 3.6328125 9.62890625 C3.75398437 10.41136719 3.87515625 11.19382812 4 12 C3.01 11.67 2.02 11.34 1 11 C-0.47666292 7.50970582 -0.07164685 3.72563614 0 0 Z " fill="#8C68BA" transform="translate(220,264)"/>
<path d="M0 0 C0.66 0 1.32 0 2 0 C2 1.98 2 3.96 2 6 C1.01 6 0.02 6 -1 6 C-0.67 4.02 -0.34 2.04 0 0 Z M-1 7 C-0.67 7 -0.34 7 0 7 C0 8.98 0 10.96 0 13 C-0.99 13.495 -0.99 13.495 -2 14 C-1.67 11.69 -1.34 9.38 -1 7 Z " fill="#7D3DC6" transform="translate(259,202)"/>
<path d="M0 0 C2.72107452 2.3500189 3.96702492 4.55674975 5 8 C4.67 8.99 4.34 9.98 4 11 C4 10.34 4 9.68 4 9 C3.01 8.67 2.02 8.34 1 8 C-0.07009208 5.17884816 0 3.09455459 0 0 Z " fill="#A985D0" transform="translate(349,148)"/>
<path d="M0 0 C0.66 0 1.32 0 2 0 C2.33 2.97 2.66 5.94 3 9 C1.68 8.67 0.36 8.34 -1 8 C-1.125 2.25 -1.125 2.25 0 0 Z " fill="#9E73E1" transform="translate(491,98)"/>
<path d="M0 0 C-1.13304992 3.39914975 -2.12518475 4.05254451 -5 6 C-6.32 5.34 -7.64 4.68 -9 4 C-8.34 4 -7.68 4 -7 4 C-7 3.34 -7 2.68 -7 2 C-2.25 0 -2.25 0 0 0 Z " fill="#9473CD" transform="translate(346,65)"/>
<path d="M0 0 C3.46941546 0.45822468 6.67395049 0.89131683 10 2 C9.67 2.66 9.34 3.32 9 4 C6.36 4 3.72 4 1 4 C0.67 2.68 0.34 1.36 0 0 Z " fill="#682EC6" transform="translate(159,345)"/>
<path d="M0 0 C2.31 0.33 4.62 0.66 7 1 C7.66 2.65 8.32 4.3 9 6 C5.9168649 4.80100302 2.93720508 3.52299523 0 2 C0 1.34 0 0.68 0 0 Z " fill="#9170CE" transform="translate(138,338)"/>
<path d="M0 0 C1.58468677 0.45363171 3.16769924 0.91311452 4.75 1.375 C5.63171875 1.63023437 6.5134375 1.88546875 7.421875 2.1484375 C9.76080572 2.9209934 11.83442562 3.83625676 14 5 C6.25 5.125 6.25 5.125 4 4 C4 3.34 4 2.68 4 2 C2.68 1.67 1.36 1.34 0 1 C0 0.67 0 0.34 0 0 Z " fill="#A07CD3" transform="translate(261,320)"/>
<path d="M0 0 C0.99 0 1.98 0 3 0 C3 1.65 3 3.3 3 5 C1.02 5 -0.96 5 -3 5 C-1.125 1.125 -1.125 1.125 0 0 Z " fill="#793EC6" transform="translate(300,283)"/>
<path d="M0 0 C0.66 0.33 1.32 0.66 2 1 C1.34 1.66 0.68 2.32 0 3 C-0.66 3 -1.32 3 -2 3 C-3.38232443 4.62626404 -4.71937515 6.2925002 -6 8 C-6.66 7.67 -7.32 7.34 -8 7 C-6.88424427 3.65273281 -6.48655378 3.37920252 -3.5625 1.75 C-2.386875 1.1725 -1.21125 0.595 0 0 Z " fill="#8357CB" transform="translate(389,261)"/>
<path d="M0 0 C0.33 0 0.66 0 1 0 C1.08082094 1.95766281 1.13910778 3.91626728 1.1875 5.875 C1.23970703 7.51082031 1.23970703 7.51082031 1.29296875 9.1796875 C1.19628906 10.11039063 1.09960938 11.04109375 1 12 C0.01 12.66 -0.98 13.32 -2 14 C-1.03644647 4.58997722 -1.03644647 4.58997722 0 0 Z " fill="#997ACE" transform="translate(98,231)"/>
<path d="M0 0 C2.475 0.495 2.475 0.495 5 1 C5 3.64 5 6.28 5 9 C0.57142857 3.85714286 0.57142857 3.85714286 0 0 Z " fill="#7E53B8" transform="translate(210,186)"/>
<path d="M0 0 C0.66 0.99 1.32 1.98 2 3 C0.8125 6.625 0.8125 6.625 -1 10 C-1.99 10.33 -2.98 10.66 -4 11 C-3.52269162 9.5410574 -3.04308958 8.08286504 -2.5625 6.625 C-2.29566406 5.81289062 -2.02882813 5.00078125 -1.75390625 4.1640625 C-1 2 -1 2 0 0 Z " fill="#AB88D7" transform="translate(468,168)"/>
<path d="M0 0 C0 0.33 0 0.66 0 1 C-5.48675196 2.86783046 -10.22192976 3.2358396 -16 3 C-10.42028161 0.16402743 -6.22522631 -0.10375377 0 0 Z " fill="#A383D7" transform="translate(269,156)"/>
<path d="M0 0 C1.32 0.33 2.64 0.66 4 1 C3.34 1.66 2.68 2.32 2 3 C2.38878188 6.01305957 3.26456874 7.39685311 5 10 C3.35 9.67 1.7 9.34 0 9 C0 6.03 0 3.06 0 0 Z " fill="#9A77CF" transform="translate(329,115)"/>
<path d="M0 0 C4.95 0.99 4.95 0.99 10 2 C10 2.66 10 3.32 10 4 C7.25 4.25 7.25 4.25 4 4 C1.625 2 1.625 2 0 0 Z " fill="#926DDB" transform="translate(425,48)"/>
<path d="M0 0 C-3.13498292 1.85776765 -5.37471432 2.20140476 -9 2 C-9 1.01 -9 0.02 -9 -1 C-5.23375329 -2.25541557 -3.62811066 -1.37061958 0 0 Z " fill="#6C43C0" transform="translate(265,322)"/>
<path d="M0 0 C-1.32 1.65 -2.64 3.3 -4 5 C-4.99 4.67 -5.98 4.34 -7 4 C-7 3.01 -7 2.02 -7 1 C-4.53721199 -0.231394 -2.7204945 -0.07159196 0 0 Z " fill="#8662CC" transform="translate(324,320)"/>
<path d="M0 0 C0.99 0.495 0.99 0.495 2 1 C3.1577506 4.47325181 3.06866652 7.36067448 3 11 C2.01 11 1.02 11 0 11 C0 7.37 0 3.74 0 0 Z " fill="#6F39BB" transform="translate(224,282)"/>
<path d="M0 0 C2 1 2 1 3.125 4.0625 C3.41375 5.031875 3.7025 6.00125 4 7 C2.68 7.99 1.36 8.98 0 10 C0 6.7 0 3.4 0 0 Z " fill="#632EB2" transform="translate(99,273)"/>
<path d="M0 0 C0 3.28176588 -0.47835901 5.10888212 -2 8 C-4.125 8.8125 -4.125 8.8125 -6 9 C-4.47291037 5.56404834 -2.40072955 2.88087546 0 0 Z " fill="#A88BD0" transform="translate(318,229)"/>
<path d="M0 0 C0.66 0.33 1.32 0.66 2 1 C1.67 1.66 1.34 2.32 1 3 C1.66 3.33 2.32 3.66 3 4 C2.01 4.33 1.02 4.66 0 5 C-0.5625 3.0625 -0.5625 3.0625 -1 1 C-0.67 0.67 -0.34 0.34 0 0 Z M-4 3 C-3.01 3.33 -2.02 3.66 -1 4 C-2.65 5.32 -4.3 6.64 -6 8 C-5.34 6.35 -4.68 4.7 -4 3 Z " fill="#8C5BD5" transform="translate(446,203)"/>
<path d="M0 0 C5.75 -0.125 5.75 -0.125 8 1 C8 1.66 8 2.32 8 3 C7.01 3.33 6.02 3.66 5 4 C5 3.34 5 2.68 5 2 C3.35 2.33 1.7 2.66 0 3 C0 2.01 0 1.02 0 0 Z " fill="#6D43C5" transform="translate(270,325)"/>
<path d="M0 0 C0.33 1.32 0.66 2.64 1 4 C0.34 4 -0.32 4 -1 4 C-1 3.34 -1 2.68 -1 2 C-2.98 2 -4.96 2 -7 2 C-7 1.34 -7 0.68 -7 0 C-4.3333581 -1.33332095 -2.83319697 -0.67102033 0 0 Z " fill="#6437C7" transform="translate(150,310)"/>
<path d="M0 0 C0.66 0.99 1.32 1.98 2 3 C0.35 4.32 -1.3 5.64 -3 7 C-3.625 5.125 -3.625 5.125 -4 3 C-2 1 -2 1 0 0 Z " fill="#8E5BD1" transform="translate(411,273)"/>
<path d="M0 0 C0.33 1.32 0.66 2.64 1 4 C-0.1875 5.8125 -0.1875 5.8125 -2 7 C-3.32 6.67 -4.64 6.34 -6 6 C-4.02 4.02 -2.04 2.04 0 0 Z " fill="#A17AD4" transform="translate(285,264)"/>
<path d="M0 0 C1.18414294 3.55242882 0.69535532 4.69830562 -0.4375 8.1875 C-0.72496094 9.08855469 -1.01242187 9.98960937 -1.30859375 10.91796875 C-1.53675781 11.60503906 -1.76492188 12.29210937 -2 13 C-2.33 13 -2.66 13 -3 13 C-3.31563182 7.73946963 -2.66590937 4.55426184 0 0 Z " fill="#A682C9" transform="translate(264,198)"/>
<path d="M0 0 C0.33 0 0.66 0 1 0 C1.36666667 5.5 1.36666667 5.5 -0.375 7.875 C-2 9 -2 9 -4 9 C-2.80100302 5.9168649 -1.52299523 2.93720508 0 0 Z " fill="#8766B5" transform="translate(113,198)"/>
<path d="M0 0 C1.32 0.33 2.64 0.66 4 1 C4.33 2.32 4.66 3.64 5 5 C4.01 5.66 3.02 6.32 2 7 C0.5393715 4.35261084 0 3.10551666 0 0 Z " fill="#9164CF" transform="translate(320,154)"/>
<path d="M0 0 C0.66 0 1.32 0 2 0 C3.42258812 3.82320557 4.24042276 6.91281305 4 11 C0.85041169 7.57653445 0.43820891 4.55737263 0 0 Z " fill="#AF8FD3" transform="translate(497,113)"/>
<path d="M0 0 C1.32 0 2.64 0 4 0 C3.38722388 2.96175123 2.74627478 4.38058783 1 7 C0.34 7 -0.32 7 -1 7 C-0.67 4.69 -0.34 2.38 0 0 Z " fill="#9C76D5" transform="translate(337,105)"/>
<path d="M0 0 C1.625 2 1.625 2 3 4 C1.35 4.33 -0.3 4.66 -2 5 C-2.66 3.68 -3.32 2.36 -4 1 C-2 0 -2 0 0 0 Z " fill="#6030C9" transform="translate(163,320)"/>
<path d="M0 0 C0.33 1.32 0.66 2.64 1 4 C0.01 4 -0.98 4 -2 4 C-2.33 4.99 -2.66 5.98 -3 7 C-3.99 6.34 -4.98 5.68 -6 5 C-4.02 3.35 -2.04 1.7 0 0 Z " fill="#A286D6" transform="translate(341,305)"/>
<path d="M0 0 C0.99 0 1.98 0 3 0 C2.34 2.97 1.68 5.94 1 9 C0.67 9 0.34 9 0 9 C-1.125 2.25 -1.125 2.25 0 0 Z " fill="#8757B6" transform="translate(125,235)"/>
<path d="M0 0 C0.66 0 1.32 0 2 0 C1.25749403 4.08378283 0.17076699 8.01939223 -1 12 C-1.33 12 -1.66 12 -2 12 C-2.17835515 7.45194365 -1.99785435 4.1205746 0 0 Z " fill="#9C71CC" transform="translate(225,228)"/>
<path d="M0 0 C0.33 0 0.66 0 1 0 C1.36923077 4.55384615 1.36923077 4.55384615 -0.5 6.8125 C-0.995 7.204375 -1.49 7.59625 -2 8 C-2.99 7.67 -3.98 7.34 -5 7 C-4.19152271 5.83054208 -3.37810888 4.66449539 -2.5625 3.5 C-2.11003906 2.8503125 -1.65757812 2.200625 -1.19140625 1.53125 C-0.79824219 1.0259375 -0.40507812 0.520625 0 0 Z " fill="#AD8DD2" transform="translate(463,179)"/>
<path d="M0 0 C4.8 3.44615385 4.8 3.44615385 5.8125 6.25 C5.874375 6.8275 5.93625 7.405 6 8 C4.68 7.67 3.36 7.34 2 7 C1.34 4.69 0.68 2.38 0 0 Z " fill="#9B71CF" transform="translate(343,139)"/>
<path d="M0 0 C2.32101984 3.48152976 2.69903201 5.86169011 3 10 C2.34 10.66 1.68 11.32 1 12 C-0.3271261 8.0186217 -0.06915913 4.14954773 0 0 Z " fill="#A17AD8" transform="translate(471,121)"/>
<path d="M0 0 C-6.4 3.07692308 -6.4 3.07692308 -9.4375 2.6875 C-9.953125 2.460625 -10.46875 2.23375 -11 2 C-3.57142857 -1.57142857 -3.57142857 -1.57142857 0 0 Z " fill="#8F6DC2" transform="translate(235,348)"/>
<path d="M0 0 C0.99 0 1.98 0 3 0 C1.60667426 3.36720387 0.0210714 4.9859524 -3 7 C-3.33 5.68 -3.66 4.36 -4 3 C-2.68 3 -1.36 3 0 3 C0 2.01 0 1.02 0 0 Z " fill="#895AC2" transform="translate(367,317)"/>
<path d="M0 0 C-1.04874998 2.62187494 -1.64931313 3.79371361 -4.125 5.25 C-4.74375 5.4975 -5.3625 5.745 -6 6 C-6 4.68 -6 3.36 -6 2 C-2.25 0 -2.25 0 0 0 Z " fill="#6E42BB" transform="translate(270,285)"/>
<path d="M0 0 C2 3 2 3 1.625 5.6875 C1.41875 6.450625 1.2125 7.21375 1 8 C-0.32 7.34 -1.64 6.68 -3 6 C-2.01 4.02 -1.02 2.04 0 0 Z " fill="#9F79CB" transform="translate(213,192)"/>
<path d="M0 0 C0.66 0.33 1.32 0.66 2 1 C-1.625 5.875 -1.625 5.875 -5 7 C-5 5.68 -5 4.36 -5 3 C-2.625 1.1875 -2.625 1.1875 0 0 Z " fill="#6E42B8" transform="translate(152,160)"/>
<path d="M0 0 C1.65 0.33 3.3 0.66 5 1 C3.68 2.65 2.36 4.3 1 6 C0.01 5.67 -0.98 5.34 -2 5 C-1.67 4.01 -1.34 3.02 -1 2 C-0.34 2.33 0.32 2.66 1 3 C0.67 2.01 0.34 1.02 0 0 Z " fill="#9C6DD0" transform="translate(206,140)"/>
<path d="M0 0 C2.475 0.495 2.475 0.495 5 1 C5.12375 1.639375 5.2475 2.27875 5.375 2.9375 C5.684375 3.9584375 5.684375 3.9584375 6 5 C6.66 5.33 7.32 5.66 8 6 C5 6 5 6 3.61328125 4.6875 C2.40885417 3.125 1.20442708 1.5625 0 0 Z " fill="#AE8FDB" transform="translate(305,138)"/>
<path d="M0 0 C-0.33 1.32 -0.66 2.64 -1 4 C-3.64 4.33 -6.28 4.66 -9 5 C-7.36885863 1.73771726 -3.62038485 0 0 0 Z " fill="#AE92DC" transform="translate(358,56)"/>
<path d="M0 0 C0 1.98 0 3.96 0 6 C-0.99 6 -1.98 6 -3 6 C-3.66 4.68 -4.32 3.36 -5 2 C-2 0 -2 0 0 0 Z " fill="#6332BF" transform="translate(135,328)"/>
<path d="M0 0 C0.33 0.66 0.66 1.32 1 2 C1.66 2.33 2.32 2.66 3 3 C2.01 3.33 1.02 3.66 0 4 C-0.33 4.99 -0.66 5.98 -1 7 C-1.66 7 -2.32 7 -3 7 C-3 5.68 -3 4.36 -3 3 C-2.01 3 -1.02 3 0 3 C0 2.01 0 1.02 0 0 Z " fill="#9764D1" transform="translate(310,277)"/>
<path d="M0 0 C0.99 0 1.98 0 3 0 C2.01 3.3 1.02 6.6 0 10 C-0.33 10 -0.66 10 -1 10 C-1.125 3.375 -1.125 3.375 0 0 Z " fill="#8A61C7" transform="translate(129,225)"/>
<path d="M0 0 C0.33 0.99 0.66 1.98 1 3 C0.34 3 -0.32 3 -1 3 C-1 4.32 -1 5.64 -1 7 C-1.99 7.33 -2.98 7.66 -4 8 C-4 6.68 -4 5.36 -4 4 C-3.34 4 -2.68 4 -2 4 C-2 3.01 -2 2.02 -2 1 C-1.34 0.67 -0.68 0.34 0 0 Z " fill="#7343BB" transform="translate(207,207)"/>
<path d="M0 0 C0 2 0 4 0 6 C-1.98 6.33 -3.96 6.66 -6 7 C-4.02 4.69 -2.04 2.38 0 0 Z " fill="#B499E0" transform="translate(457,188)"/>
<path d="M0 0 C0.33 0.99 0.66 1.98 1 3 C-1.49064888 3.68707555 -3.37886292 4 -6 4 C-6 3.01 -6 2.02 -6 1 C-4 0 -4 0 0 0 Z " fill="#703DBD" transform="translate(143,172)"/>
<path d="M0 0 C1.32 1.32 2.64 2.64 4 4 C0.37673261 5.2077558 -0.64146369 4.54311128 -4 3 C-2.68 2.01 -1.36 1.02 0 0 Z " fill="#8B53D9" transform="translate(301,129)"/>
<path d="M0 0 C0.66 0 1.32 0 2 0 C2 0.66 2 1.32 2 2 C3.65 2.33 5.3 2.66 7 3 C4 5 4 5 1.875 4.8125 C1.25625 4.544375 0.6375 4.27625 0 4 C-0.33 3.01 -0.66 2.02 -1 1 C-0.67 0.67 -0.34 0.34 0 0 Z " fill="#9564EB" transform="translate(457,94)"/>
<path d="M0 0 C3.55780196 0.60990891 6.6828589 1.5783681 10 3 C10 3.33 10 3.66 10 4 C7.69 4 5.38 4 3 4 C2.67 3.01 2.34 2.02 2 1 C1.34 0.67 0.68 0.34 0 0 Z " fill="#AE98E3" transform="translate(433,49)"/>
<path d="M0 0 C0.33 0.66 0.66 1.32 1 2 C3.01669827 3.13350534 3.01669827 3.13350534 5 4 C3.25 4.75 3.25 4.75 1 5 C-1.25 3.0625 -1.25 3.0625 -3 1 C-2.01 0.67 -1.02 0.34 0 0 Z " fill="#7350C5" transform="translate(135,333)"/>
<path d="M0 0 C-3.28312259 1.75881567 -6.23856995 3 -10 3 C-10 2.34 -10 1.68 -10 1 C-6.52674819 -0.1577506 -3.63932552 -0.06866652 0 0 Z " fill="#6D45BD" transform="translate(311,326)"/>
<path d="M0 0 C0.66 0.66 1.32 1.32 2 2 C1.34 2 0.68 2 0 2 C0 2.66 0 3.32 0 4 C-0.66 4 -1.32 4 -2 4 C-2 4.66 -2 5.32 -2 6 C-2.66 6 -3.32 6 -4 6 C-4.33 4.68 -4.66 3.36 -5 2 C-3.35 1.34 -1.7 0.68 0 0 Z " fill="#8D56D9" transform="translate(469,214)"/>
<path d="M0 0 C0.99 0 1.98 0 3 0 C1.95125002 2.62187494 1.35068687 3.79371361 -1.125 5.25 C-1.74375 5.4975 -2.3625 5.745 -3 6 C-2 4 -1 2 0 0 Z " fill="#7B45BC" transform="translate(150,197)"/>
<path d="M0 0 C0.66 0 1.32 0 2 0 C0.84826645 2.46800047 -0.04783565 4.04783565 -2 6 C-2.99 5.67 -3.98 5.34 -5 5 C-4.34 4.01 -3.68 3.02 -3 2 C-2.01 2 -1.02 2 0 2 C0 1.34 0 0.68 0 0 Z " fill="#7A4ABB" transform="translate(164,184)"/>
<path d="M0 0 C0.66 0 1.32 0 2 0 C2 3 2 3 0.625 4.6875 C-1 6 -1 6 -3 6 C-3.33 5.01 -3.66 4.02 -4 3 C-2.68 2.67 -1.36 2.34 0 2 C0 1.34 0 0.68 0 0 Z " fill="#9061CA" transform="translate(169,179)"/>
<path d="M0 0 C1.98 0 3.96 0 6 0 C5.67 0.99 5.34 1.98 5 3 C3.35 3 1.7 3 0 3 C0 2.01 0 1.02 0 0 Z " fill="#906AE2" transform="translate(438,53)"/>
</svg>
